<svg xmlns="http://www.w3.org/2000/svg" width="395" height="407" viewBox="0 0 395 407">
    <g fill="none" fill-rule="evenodd">
        <g fill-rule="nonzero">
            <g>
                <g fill="#F5F5F5" transform="translate(-972 -455) translate(972 455) translate(0 188)">
                    <ellipse cx="197.5" cy="109.5" rx="197.5" ry="109.5"/>
                </g>
                <g fill="#E6E6E6" transform="translate(-972 -455) translate(972 455) translate(53 187)">
                    <path d="M322.333 93.747l-110.225 63.648c-.93.475-2.033.475-2.963 0L50.227 65.715c-.392-.1-.667-.452-.667-.856 0-.404.275-.757.667-.855L160.452.357c.93-.476 2.033-.476 2.963 0l158.918 91.68c.392.098.667.45.667.855 0 .404-.275.757-.667.855z"/>
                    <ellipse cx="66.205" cy="154.785" rx="66.205" ry="38.215"/>
                    <ellipse cx="146.819" cy="110.479" rx="52.114" ry="30.078"/>
                    <ellipse cx="262.723" cy="150.801" rx="32.715" ry="18.883"/>
                </g>
                <g>
                    <g>
                        <g>
                            <path fill="#37474F" d="M153.343 140.097v97.898c-.038.695-.405 1.33-.989 1.71l-2.102 1.209c-.621.317-1.357.317-1.978 0l-2.102-1.208c-.584-.381-.951-1.016-.99-1.711v-97.898c0-.626.442-.882.99-.564l2.102 1.208c.62.317 1.357.317 1.978 0l2.102-1.208c.548-.318.99-.062.99.564z" transform="translate(-972 -455) translate(972 455) translate(115 11) translate(0 79.848)"/>
                            <path fill="#455A64" d="M148.274 240.87l-2.102-1.208c-.584-.381-.951-1.016-.99-1.711v-97.854c0-.626.442-.882.99-.564l2.102 1.208c.576.375.942 1 .989 1.685v97.897c0 .609-.442.882-.99.547z" transform="translate(-972 -455) translate(972 455) translate(115 11) translate(0 79.848)"/>
                            <path fill="#37474F" d="M242.998 88.38v97.844c-.034.696-.402 1.333-.989 1.71l-2.102 1.235c-.623.31-1.355.31-1.978 0l-2.102-1.217c-.584-.38-.951-1.016-.99-1.71V88.378c0-.626.45-.882.99-.573l2.102 1.217c.62.317 1.357.317 1.978 0l2.102-1.217c.548-.309.99-.062.99.573z" transform="translate(-972 -455) translate(972 455) translate(115 11) translate(0 79.848)"/>
                            <path fill="#455A64" d="M237.929 189.17l-2.102-1.218c-.584-.38-.951-1.016-.99-1.71V88.378c0-.626.45-.882.99-.573l2.102 1.217c.584.38.952 1.016.989 1.711v97.844c0 .591-.442.882-.99.591z" transform="translate(-972 -455) translate(972 455) translate(115 11) translate(0 79.848)"/>
                            <path fill="#37474F" d="M32.6 70.52v97.897c-.039.695-.406 1.33-.99 1.71l-2.102 1.21c-.621.316-1.357.316-1.978 0l-2.102-1.21c-.584-.38-.951-1.015-.99-1.71V70.519c0-.626.442-.882.99-.564l2.128 1.208c.621.317 1.357.317 1.979 0l2.102-1.208c.52-.317.962-.062.962.564z" transform="translate(-972 -455) translate(972 455) translate(115 11) translate(0 79.848)"/>
                            <path fill="#455A64" d="M27.556 171.292l-2.102-1.208c-.583-.38-.95-1.016-.989-1.711V70.475c0-.626.442-.882.99-.564l2.101 1.252c.584.381.951 1.016.99 1.711v97.845c-.027.635-.469.89-.99.573z" transform="translate(-972 -455) translate(972 455) translate(115 11) translate(0 79.848)"/>
                            <path fill="#0070FF" d="M262.49 95.338v-.715c-.058-1.259-.714-2.415-1.766-3.113L102.63.43c-1.132-.573-2.47-.573-3.603 0L1.766 56.523C.715 57.22.06 58.377 0 59.636v.767c.059 1.26.715 2.416 1.766 3.114l158.095 91.07c1.135.565 2.47.565 3.604 0l97.26-56.136c1.05-.698 1.707-1.854 1.766-3.113z" transform="translate(-972 -455) translate(972 455) translate(115 11) translate(0 79.848)"/>
                            <path fill="#000" d="M262.49 95.338v-.715c-.058-1.259-.714-2.415-1.766-3.113L102.63.43c-1.132-.573-2.47-.573-3.603 0L1.766 56.523C.715 57.22.06 58.377 0 59.636v.767c.059 1.26.715 2.416 1.766 3.114l158.095 91.07c1.135.565 2.47.565 3.604 0l97.26-56.136c1.05-.698 1.707-1.854 1.766-3.113z" opacity=".6" transform="translate(-972 -455) translate(972 455) translate(115 11) translate(0 79.848)"/>
                            <path fill="#0070FF" d="M161.646 150.116v4.869c.615.003 1.222-.146 1.766-.432l97.312-56.093c1.05-.7 1.705-1.855 1.767-3.113v-.724c-.062-1.121-.595-2.165-1.466-2.875.644.556.538 1.323-.336 1.844l-97.26 56.092c-.547.294-1.162.442-1.783.432z" transform="translate(-972 -455) translate(972 455) translate(115 11) translate(0 79.848)"/>
                            <path fill="#000" d="M161.646 150.116v4.869c.615.003 1.222-.146 1.766-.432l97.312-56.093c1.05-.7 1.705-1.855 1.767-3.113v-.724c-.062-1.121-.595-2.165-1.466-2.875.644.556.538 1.323-.336 1.844l-97.26 56.092c-.547.294-1.162.442-1.783.432z" opacity=".5" transform="translate(-972 -455) translate(972 455) translate(115 11) translate(0 79.848)"/>
                            <path fill="#0070FF" d="M260.724 93.583l-97.277 56.101c-1.132.574-2.47.574-3.603 0L1.74 58.64c-.445-.15-.745-.566-.745-1.036 0-.47.3-.886.745-1.036L99 .43c1.132-.573 2.47-.573 3.603 0l158.121 91.08c.446.15.746.567.746 1.036 0 .47-.3.887-.746 1.037z" transform="translate(-972 -455) translate(972 455) translate(115 11) translate(0 79.848)"/>
                            <path fill="#000" d="M260.724 93.583l-97.277 56.101c-1.132.574-2.47.574-3.603 0L1.74 58.64c-.445-.15-.745-.566-.745-1.036 0-.47.3-.886.745-1.036L99 .43c1.132-.573 2.47-.573 3.603 0l158.121 91.08c.446.15.746.567.746 1.036 0 .47-.3.887-.746 1.037z" opacity=".4" transform="translate(-972 -455) translate(972 455) translate(115 11) translate(0 79.848)"/>
                        </g>
                        <g>
                            <path fill="#000" d="M94.248 43.262L71.205 56.58c-.814.41-1.774.41-2.588 0L.54 17.386C.217 17.279 0 16.979 0 16.64c0-.338.217-.639.54-.745L23.581 2.57c.812-.406 1.768-.406 2.58 0l68.086 39.203c.322.106.54.406.54.745 0 .339-.218.639-.54.745z" opacity=".15" transform="translate(-972 -455) translate(972 455) translate(115 11) translate(55.448 128.951)"/>
                            <g>
                                <path fill="#263238" d="M0 13.531c.028-.328.235-.613.54-.74L22.186.31c.81-.415 1.77-.415 2.579 0L90.83 38.456c.303.13.508.42.53.75v2.266c-.025.326-.23.611-.53.74l-21.639 12.48c-.812.415-1.775.415-2.587 0L.539 16.592c-.304-.127-.511-.413-.538-.741v-2.32z" transform="translate(-972 -455) translate(972 455) translate(115 11) translate(55.448 128.951) translate(1.934)"/>
                                <path fill="#37474F" d="M69.191 52.373l21.64-12.427c.321-.106.538-.407.538-.745 0-.339-.217-.64-.539-.745L24.766.31c-.81-.415-1.77-.415-2.58 0L.54 12.79c-.322.106-.539.406-.539.745 0 .338.217.639.54.745l66.064 38.083c.812.413 1.772.416 2.587.009z" transform="translate(-972 -455) translate(972 455) translate(115 11) translate(55.448 128.951) translate(1.934)"/>
                                <path fill="#263238" d="M67.981 52.673v2.32c.422 0 .838-.103 1.21-.3l21.63-12.471c.307-.13.515-.419.539-.75v-2.276c-.024.332-.232.621-.539.75l-21.63 12.427c-.373.195-.788.297-1.21.3z" transform="translate(-972 -455) translate(972 455) translate(115 11) translate(55.448 128.951) translate(1.934)"/>
                                <path fill="#0070FF" d="M4.01 13.699l2.138-1.235 2.905 1.676-2.155 1.279-2.905-1.676.017-.044zm3.357-1.931l2.146-1.235 2.287 1.314-2.155 1.217-2.278-1.314v.018zm.706 4.277l2.146-1.235 2.279 1.314-2.155 1.28-2.279-1.315.01-.044zm2.65-6.174l2.146-1.234 3.683 2.134-2.155 1.27-3.683-2.126.009-.044zm.08 3.916l2.137-1.243 1.819 1.05-2.146 1.234-1.81-1.067v.026zm.706 4.269l2.137-1.235 2.288 1.314-2.164 1.28L11.49 18.1l.018-.044zm2.26-2.558l2.138-1.235 1.767 1.05-2.155 1.279-1.767-1.05.018-.044zm.301-7.567l2.146-1.235 2.906 1.676-2.137 1.217-2.906-1.676-.009.018zm.883 12.11l2.138-1.235 16.498 9.507-2.155 1.279-16.498-9.508.017-.044zm.619-7.383l2.137-1.234 1.766 1.05-2.155 1.27-1.81-1.042.062-.044zm1.174 4.551l2.138-1.235 1.81 1.05-2.155 1.279-1.81-1.05.017-.044zm.68-11.2l2.138-1.235 1.82 1.05-2.156 1.27-1.793-1.086h-.009zm.707 4.277L20.27 9.05l1.82 1.04-2.138 1.21-1.82-1.042v.027zm.397 4.092l2.138-1.235 1.81 1.05-2.155 1.27-1.81-1.04.017-.045zm1.175 4.551l2.137-1.235 1.767 1.05-2.155 1.279-1.767-1.05.018-.044zm.689-11.21l2.137-1.234 1.82 1.05-2.155 1.27-1.767-1.042-.035-.044zm.706 4.278l2.138-1.235 1.82 1.04-2.156 1.28-1.81-1.041.008-.044zm.398 4.092l2.137-1.235 1.767 1.05-2.155 1.27-1.767-1.04.018-.045zm0-12.427l2.137-1.234 2.288 1.314-2.164 1.279-2.279-1.315.018-.044zm1.175 16.978l2.137-1.235 1.81 1.05-2.155 1.279-1.81-1.05.018-.044zm.688-11.21L25.5 8.196l1.82 1.05-2.138 1.172-1.81-1.04-.01.052zm.707 4.278l2.137-1.235 1.82 1.04-2.155 1.28-1.82-1.112.018.027zm.397 4.092l2.138-1.235 1.81 1.05-2.155 1.27-1.81-1.04.017-.045zm1.175 4.551l2.138-1.235 1.766 1.05-2.155 1.279-1.766-1.05.017-.044zm.583-15.963l2.146-1.235 1.81 1.04-2.154 1.28-1.81-1.041.008-.044zm.106 4.753l2.137-1.234 1.82 1.05-2.146 1.225-1.767-1.04h-.044zm.707 4.278l2.137-1.235 1.82 1.04-2.156 1.28-1.81-1.041.009-.044zm.397 4.092l2.137-1.235 1.767 1.05-2.155 1.27-1.767-1.04.018-.045zm1.175 4.551l2.155-1.296 1.766 1.05-2.155 1.278-1.81-1.05.044.018zm.583-15.963l2.137-1.235 1.82 1.04-2.156 1.28-1.766-1.041-.035-.044zm.106 4.753l2.137-1.234 1.82 1.05-2.138 1.199-1.766-1.041-.053.026zm.706 4.278l2.138-1.235 1.819 1.04-2.155 1.28-1.81-1.041.008-.044zm.398 4.092l2.146-1.235 1.81 1.05-2.155 1.27-1.81-1.04.009-.045zm1.174 4.551l2.138-1.244 1.81 1.05-2.155 1.279-1.81-1.05.017-.035zm.583-15.963l2.146-1.235 1.811 1.04-2.155 1.28-1.81-1.041.008-.044zm.106 4.753l2.146-1.234 1.811 1.05-2.164 1.27-1.766-1.042-.027-.044zm.327 15.664l2.146-1.235 2.279 1.314-2.155 1.28-2.279-1.315.01-.044zm.38-11.386l2.137-1.235 1.82 1.04-2.155 1.28-1.811-1.041.009-.044zm.397 4.092l2.146-1.235 1.785.98-2.155 1.27-1.811-1.041.035.026zm1.175 4.551l2.137-1.235 1.82 1.05-2.164 1.279-1.81-1.05.017-.044zm.583-15.963l2.146-1.235 1.793 1.014-2.155 1.279-1.81-1.04.026-.018zm.106 4.753l2.146-1.234 1.81 1.05-2.154 1.27-1.811-1.042.009-.044zm.706 4.278l2.147-1.235 1.766 1.04-2.155 1.28-1.766-1.041.008-.044zm.089 11.65l2.146-1.234 2.279 1.314-2.155 1.279-2.28-1.314.01-.044zm.309-7.558l2.137-1.235 1.767 1.05-2.058 1.2-1.767-1.041-.08.026zm1.175 4.551l2.137-1.235 1.82 1.05-2.165 1.279-1.81-1.05.018-.044zm.688-11.21l2.147-1.234 1.766 1.05-2.155 1.27-1.775-1.112.017.026zm.707 4.278l2.146-1.235 1.81 1.04-2.154 1.28-1.81-1.041.008-.044zm.397 4.092l2.138-1.235 1.81 1.05-2.155 1.27-1.793-1.147v.062zm.089-12.347l2.146-1.235 1.81 1.05-2.154 1.278-1.802-1.155v.062zm.07 20.205l2.147-1.234 2.278 1.314-2.172 1.182-2.28-1.315.027.053zm1.016-3.28l2.138-1.244 1.819 1.05-2.164 1.278-1.766-1.05-.027-.035zm.689-11.21l2.137-1.235 1.82 1.05-2.155 1.27-1.81-1.041.008-.044zM41.874 24l2.146-1.234 1.81 1.04-2.155 1.28-1.81-1.042.009-.044zm.397 4.093l2.137-1.235 1.82 1.05-2.164 1.27-1.793-1.12v.035zm.088-12.348l2.147-1.235 1.81 1.05-2.155 1.279-1.766-1.05-.036-.044zm.548 20.48l2.146-1.244 2.906 1.675-2.155 1.28-2.906-1.676.009-.036zm.539-3.529l2.137-1.243 5.723 3.298-2.155 1.28-5.67-3.45-.035.115zm.689-11.21l2.146-1.234 1.81 1.05-2.155 1.27-1.81-1.041.009-.044zm.706 4.278l2.146-1.235 1.793.882-2.155 1.28-1.81-1.041.026.114zm.398 4.092l2.137-1.234 1.82 1.05-2.182 1.12-1.767-1.041-.008.105zm.088-12.347l2.146-1.235 1.81 1.05-2.154 1.279-1.81-1.05.008-.044zm1.766 5.715l2.147-1.235 1.81 1.05-2.155 1.27-1.81-1.04.008-.045zm.486 15.752l2.138-1.235 1.819 1.04-2.164 1.28-1.766-1.04-.027-.045zM47.8 27.51l2.146-1.234 1.767 1.04-2.05 1.094-1.766-1.04-.097.14zm.397 4.093l2.138-1.235 1.66.953c.161.082.34.121.521.114.19.007.377-.033.548-.114l2.817-1.623 2.12 1.226-5.502 3.21-4.32-2.487.018-.044zm.089-12.348l2.146-1.234 1.81 1.05-2.137 1.049-1.81-1.05-.01.185zm1.766 5.715l2.138-1.234 1.819 1.05-2.155 1.27-1.767-1.041-.035-.045zm.486 15.752l2.137-1.235 1.82 1.041-2.164 1.279-1.767-1.04-.026-.045zm.22-11.465l2.147-1.235 1.81 1.04-2.155 1.28-1.81-1.041.009-.044zm1.767-7.541l2.138-1.235 1.819 1.041-2.164 1.279-1.81-1.04.017-.045zm.486 4.974l2.137-1.234 1.82 1.05-2.155 1.27-1.81-1.042.008-.044zm.486 15.752l2.146-1.235 1.81 1.041-2.163 1.279-1.767-1.04-.026-.045zm.388-3.642l2.138-1.235 1.82 1.05-2.165 1.278-1.766-1.252-.027.159zm1.608-15.373l2.137-1.235 1.81 1.041-2.154 1.279-1.81-1.04.017-.045zm.486 4.974l2.146-1.234 3.215 1.852-2.155 1.278-3.215-1.852.009-.044zm1.112 16.114l2.138-1.235 4.787 2.752-2.164 1.278-4.778-2.751.017-.044zm.53-11.298l2.146-1.235 1.811 1.05-2.155 1.27-1.81-1.041.008-.044zm.84-8.079l2.137-1.235 1.81 1.041-2.146 1.058-1.766-1.04-.036.176zm1.987 17.445l2.146-1.235 1.81 1.05-2.155 1.279-1.81-1.05.009-.044zm.14-7.655l2.147-1.235 1.767 1.05-2.156 1.27-1.766-1.041.009-.044zm.39-3.643l2.146-1.234 1.766 1.04-2.155 1.28-1.766-1.042.008-.044zm.45-4.41l2.137-1.234 1.767 1.04-2.155 1.28-1.767-1.041.018-.045zm1.599 21.088l2.137-1.235 1.82 1.041-2.165 1.279-1.766-1.04-.026-.045zm.388-3.642l2.146-1.235 1.767 1.05-2.155 1.278-1.767-1.05.01-.043zm.141-7.656l2.147-1.235 1.81 1.05-2.155 1.27-1.81-1.04.008-.045zm.248 4.004l2.146-1.234 1.766 1.05-2.155 1.27-1.766-1.042.009-.044zm.141-7.646l2.146-1.235 1.81 1.04-2.154 1.28-1.81-1.041.008-.044zm1.104-4.057l2.137-1.235 1.82 1.04-2.111 1.05-1.81-1.04-.036.185zm.945 20.708l5.494-3.175 1.81 1.05-5.502 3.21-1.82-1.04.018-.045zm.389-3.642l2.146-1.235 1.81 1.05-2.128 1.022-1.766-1.049-.062.212zm.388-3.652l2.147-1.234 1.81 1.05-2.155 1.27-1.775-1.297-.027.211zm.142-7.646l2.146-1.235 1.81 1.04-2.155 1.28-1.81-1.041.009-.044zm.238 4.004l2.146-1.235 1.81 1.04-2.154 1.28-1.81-1.041.008-.044zm.883-8.061l2.138-1.235 1.82 1.04-2.156 1.28-1.81-1.041.008-.044zm1.723 13.414l2.146-1.234 1.81 1.05-2.155 1.278-1.793-1.252-.008.158zm.38-3.642l2.146-1.235 1.81 1.04-2.128 1.033-1.81-1.041-.019.203zm.388-3.643l2.137-1.234 1.82 1.04-2.164 1.28-1.766-1.042-.027-.044zm.477-4.41l2.137-1.234 1.82 1.04-2.155 1.28-1.81-1.041.008-.044zm1.722 13.415l5.503-3.166 1.81 1.04-5.511 3.22-1.81-1.05.008-.044zm.38-3.642l2.146-1.235 1.81 1.04-2.154 1.28-1.81-1.041.008-.044zm.389-3.643l2.137-1.235 1.82 1.041-2.173 1.023-1.767-1.04-.017.211zm1.97-4.56l.882-.538 1.82 1.05-.936.573-1.767-1.04v-.045zm.997 6.271l2.138-1.235 1.819 1.041-2.164 1.279-1.766-1.04-.027-.045zm1.97-4.56l.883-.538 1.82 1.05-.937.573-1.766-1.04v-.045zm.998 6.271l2.137-1.235 1.82 1.041-2.164 1.279-1.767-1.04-.026-.045zm1.97-4.56l.883-.538L84.1 37.9l-.936.573-1.767-1.04v-.045zm2.958 1.711l.883-.538 1.82 1.05-.936.573-1.767-1.04v-.045z" transform="translate(-972 -455) translate(972 455) translate(115 11) translate(55.448 128.951) translate(1.934)"/>
                            </g>
                        </g>
                        <g>
                            <path fill="#000" d="M101.357 158.409L121.627 146.723 20.27 88.284 0 99.97z" opacity=".15" transform="translate(-972 -455) translate(972 455) translate(115 11) translate(101.587 16.389)"/>
                            <g>
                                <path fill="#E6E6E6" d="M40.55 139.385l-14.466-8.36c-1.493-.883-2.243-1.985-2.243-3.114V125.9l13.619-7.717c.85-.556 1.384-1.483 1.44-2.496V97.87l25.277 14.588v17.815c-.056 1.014-.59 1.94-1.44 2.496l-11.376 6.615c-3.397 1.72-7.412 1.72-10.81 0z" transform="translate(-972 -455) translate(972 455) translate(115 11) translate(101.587 16.389) translate(3.407)"/>
                                <path fill="#E0E0E0" d="M58.11 133.432v2.002l4.627-2.646c.852-.554 1.387-1.482 1.44-2.496v-17.815l-4.814-2.779c-.097 1.226-.212 2.488-.309 3.713l3.374 1.958v13.918c-.048 1.015-.584 1.944-1.44 2.496l-2.879 1.649z" transform="translate(-972 -455) translate(972 455) translate(115 11) translate(101.587 16.389) translate(3.407)"/>
                                <path fill="#F5F5F5" d="M62.428 129.27c-.053 1.013-.588 1.94-1.44 2.495l-9.627 5.61c-3.397 1.719-7.412 1.719-10.81 0l-14.476-8.362c-2.985-1.71-2.985-4.507 0-6.226l9.636-5.61c.85-.552 1.384-1.476 1.44-2.487v-13.926l25.277 14.588v13.917z" transform="translate(-972 -455) translate(972 455) translate(115 11) translate(101.587 16.389) translate(3.407)"/>
                                <path fill="#EBEBEB" d="M32.779 118.87l2.932-1.693c.85-.552 1.384-1.476 1.44-2.487v-13.926l25.277 14.588v13.917c-.053 1.014-.588 1.942-1.44 2.496l-2.879 1.667-25.33-14.561zM23.84 125.9v2.01c0 1.13.751 2.25 2.235 3.114l14.476 8.352c1.587.846 3.36 1.285 5.158 1.28v-2.003c-1.799.006-3.571-.433-5.158-1.279l-14.476-8.36c-1.484-.856-2.234-1.985-2.234-3.114z" transform="translate(-972 -455) translate(972 455) translate(115 11) translate(101.587 16.389) translate(3.407)"/>
                                <path fill="#455A64" d="M103.02 148.496c-1.106.535-2.402.512-3.488-.062L1.769 92.112C.717 91.414.062 90.258.003 89V3.51C-.047 2.257.603 1.08 1.69.453 2.779-.174 4.125-.148 5.187.52l97.754 56.366c1.052.697 1.708 1.854 1.766 3.113v85.444c-.041 1.228-.668 2.362-1.686 3.052z" transform="translate(-972 -455) translate(972 455) translate(115 11) translate(101.587 16.389) translate(3.407)"/>
                                <path fill="#37474F" d="M99.532 148.425L1.769 92.112C.717 91.414.062 90.258.003 89V3.502c0-1.147.803-1.605 1.766-1.032l97.763 56.357c1.048.7 1.703 1.855 1.766 3.113v85.453c.036 1.165-.777 1.605-1.766 1.032z" transform="translate(-972 -455) translate(972 455) translate(115 11) translate(101.587 16.389) translate(3.407)"/>
                                <path fill="#E0E0E0" d="M99.797 148.787c1.065.551 2.344.494 3.356-.149s1.604-1.776 1.554-2.973v-9.614l-3.373 1.923v9.613c0 1.076-.663 1.544-1.537 1.2z" transform="translate(-972 -455) translate(972 455) translate(115 11) translate(101.587 16.389) translate(3.407)"/>
                                <path fill="#FFF" d="M101.334 137.974v9.613c0 1.147-.813 1.614-1.767 1.041L1.77 92.288C.717 91.592.062 90.436.003 89.176v-9.613l101.33 58.412z" transform="translate(-972 -455) translate(972 455) translate(115 11) translate(101.587 16.389) translate(3.407)"/>
                                <path fill="#0070FF" d="M97.95 130.689V63.06c-.042-.758-.441-1.452-1.077-1.87L4.428 7.904c-.592-.344-1.078-.07-1.078.617v67.629c.038.76.439 1.455 1.078 1.87l92.445 53.296c.566.344 1.078.062 1.078-.626z" transform="translate(-972 -455) translate(972 455) translate(115 11) translate(101.587 16.389) translate(3.407)"/>
                                <path fill="#FFF" d="M97.95 130.689V63.06c-.042-.758-.441-1.452-1.077-1.87L4.428 7.904c-.592-.344-1.078-.07-1.078.617v67.629c.038.76.439 1.455 1.078 1.87l92.445 53.296c.566.344 1.078.062 1.078-.626z" opacity=".5" transform="translate(-972 -455) translate(972 455) translate(115 11) translate(101.587 16.389) translate(3.407)"/>
                                <path fill="#455A64" d="M50.628 112.459c.995.65 1.62 1.734 1.687 2.92 0 1.075-.76 1.516-1.687.978-1-.65-1.63-1.738-1.695-2.928.026-1.032.812-1.508 1.695-.97z" transform="translate(-972 -455) translate(972 455) translate(115 11) translate(101.587 16.389) translate(3.407)"/>
                                <path fill="#263238" d="M100.804 60.168c.315.537.497 1.142.53 1.763v76.043l3.373-1.95V60c-.025-.623-.207-1.23-.53-1.764l-3.373 1.932z" transform="translate(-972 -455) translate(972 455) translate(115 11) translate(101.587 16.389) translate(3.407)"/>
                            </g>
                        </g>
                        <g>
                            <g>
                                <path fill="#455A64" d="M.009 2.251c-.004-.052-.004-.106 0-.158-.005-.05-.005-.1 0-.15.02-.079.052-.153.097-.22.012-.033.03-.063.053-.089l.053-.062c.034-.042.072-.08.115-.114.047-.035.097-.064.15-.089.387-.141.819-.085 1.157.15l114.093 65.742c1.016.668 1.655 1.777 1.723 2.99v82.833c0 .431-.238.828-.619 1.032l-.08.053-.087.053h-.15c-.074.009-.148.009-.221 0-.2-.006-.395-.063-.566-.168h-.044l-1.519-.926L1.722 88.322C.706 87.658.066 86.552 0 85.34V2.437c0-.044.009-.115.009-.186z" transform="translate(-972 -455) translate(972 455) translate(115 11) translate(120.947)"/>
                                <path fill="#0070FF" d="M.565 1.325c.387-.141.82-.085 1.157.15l114.094 65.742c1.015.668 1.654 1.777 1.722 2.99v5.662l2.2-1.288v-5.583c-.067-1.21-.707-2.318-1.723-2.981L3.92.232C3.56-.033 3.078-.074 2.676.126 2.367.32.936 1.13.566 1.326z" transform="translate(-972 -455) translate(972 455) translate(115 11) translate(120.947)"/>
                                <path fill="#0070FF" d="M0 2.454C0 1.37.777.928 1.722 1.475l114.094 65.75c1.02.66 1.66 1.77 1.722 2.981v5.663L0 8.108V2.454z" transform="translate(-972 -455) translate(972 455) translate(115 11) translate(120.947)"/>
                                <g fill="#FFF" opacity=".5">
                                    <path d="M1.148 1.475l114.094 65.75c.503.315.92.752 1.21 1.27l2.19-1.261c-.286-.516-.7-.95-1.201-1.261L3.356.23C2.99-.033 2.507-.074 2.102.126 1.792.32.336 1.13 0 1.325c.384-.146.815-.09 1.148.15z" transform="translate(-972 -455) translate(972 455) translate(115 11) translate(120.947) translate(.574)"/>
                                </g>
                                <path fill="#000" d="M119.746 74.546v-5.592c-.015-.624-.194-1.232-.521-1.764l-2.2 1.261c.325.514.505 1.105.522 1.711v5.707l2.199-1.323z" opacity=".15" transform="translate(-972 -455) translate(972 455) translate(115 11) translate(120.947)"/>
                                <path fill="#455A64" d="M113.652 68.407c.629.499.988 1.262.971 2.064 0 .82-.432 1.244-.971.935-.63-.499-.989-1.262-.972-2.064 0-.82.433-1.244.972-.935zM110.145 66.387c.63.495.989 1.256.972 2.055 0 .83-.433 1.244-.972.935-.628-.495-.988-1.255-.971-2.055 0-.829.433-1.243.971-.935zM106.64 64.403c.628.499.987 1.262.97 2.064 0 .82-.432 1.243-.97.935-.629-.5-.988-1.263-.972-2.064 0-.873.432-1.288.971-.935z" transform="translate(-972 -455) translate(972 455) translate(115 11) translate(120.947)"/>
                                <path fill="#263238" d="M116.92 154.09l.088-.053 1.82-1.05c.484-.284.81-.775.883-1.332.004-.082.004-.164 0-.247V74.537l-2.208 1.296v77.216c.004.398-.2.769-.54.979h-.052l.009.061z" opacity=".9" transform="translate(-972 -455) translate(972 455) translate(115 11) translate(120.947)"/>
                            </g>
                            <g>
                                <path fill="#0070FF" d="M32.149 22.855l24.05 13.837c.357.22.587.597.618 1.015 0 .37-.274.511-.618.308l-24.05-13.837c-.353-.223-.579-.6-.61-1.015 0-.37.274-.502.61-.308z" transform="translate(-972 -455) translate(972 455) translate(115 11) translate(120.947) translate(2.8 14.596)"/>
                                <path fill="#E6E6E6" d="M41.343 49.349l9.08 5.238c.353.222.58.599.609 1.015 0 .361-.274.502-.61.308l-9.079-5.22c-.359-.218-.59-.597-.618-1.015-.018-.38.274-.52.618-.326zM41.343 54.65l9.08 5.23c.353.226.578.605.609 1.022 0 .362-.274.503-.61.309l-9.079-5.23c-.357-.22-.587-.597-.618-1.014-.018-.38.274-.512.618-.318z" transform="translate(-972 -455) translate(972 455) translate(115 11) translate(120.947) translate(2.8 14.596)"/>
                                <path fill="#0070FF" d="M58.575 38.06l48.161 27.693c.353.226.579.605.61 1.023 0 .362-.274.503-.61.309L58.575 39.39c-.353-.226-.58-.605-.61-1.023 0-.361.274-.502.61-.308zM41.537 86.506L56.2 94.98c.359.218.59.596.618 1.014 0 .362-.274.503-.618.31l-14.662-8.477c-.353-.221-.58-.598-.609-1.014 0-.361.274-.502.61-.308zM58.575 96.348l48.161 27.729c.353.223.579.599.61 1.014 0 .37-.274.503-.61.309L58.575 97.67c-.353-.222-.58-.599-.61-1.014 0-.37.274-.503.61-.309zM32.149 28.164l12.091 6.95c.353.222.579.599.61 1.014 0 .37-.274.512-.61.309L32.15 29.522c-.354-.221-.58-.598-.61-1.014 0-.397.274-.538.61-.344z" transform="translate(-972 -455) translate(972 455) translate(115 11) translate(120.947) translate(2.8 14.596)"/>
                                <path fill="#FFF" d="M32.149 28.164l12.091 6.95c.353.222.579.599.61 1.014 0 .37-.274.512-.61.309L32.15 29.522c-.354-.221-.58-.598-.61-1.014 0-.397.274-.538.61-.344z" opacity=".6" transform="translate(-972 -455) translate(972 455) translate(115 11) translate(120.947) translate(2.8 14.596)"/>
                                <path fill="#0070FF" d="M32.149 33.456l5.67 3.263c.353.222.579.599.61 1.014 0 .362-.274.503-.61.309l-5.67-3.228c-.353-.223-.579-.599-.61-1.014 0-.406.274-.538.61-.344z" transform="translate(-972 -455) translate(972 455) translate(115 11) translate(120.947) translate(2.8 14.596)"/>
                                <path fill="#FFF" d="M32.149 33.456l5.67 3.263c.353.222.579.599.61 1.014 0 .362-.274.503-.61.309l-5.67-3.228c-.353-.223-.579-.599-.61-1.014 0-.406.274-.538.61-.344z" opacity=".6" transform="translate(-972 -455) translate(972 455) translate(115 11) translate(120.947) translate(2.8 14.596)"/>
                                <path fill="#0070FF" d="M32.149 44.048l5.67 3.263c.353.227.579.606.61 1.023 0 .362-.274.503-.61.309l-5.67-3.263c-.353-.227-.579-.606-.61-1.023 0-.362.274-.503.61-.309z" transform="translate(-972 -455) translate(972 455) translate(115 11) translate(120.947) translate(2.8 14.596)"/>
                                <path fill="#FFF" d="M32.149 44.048l5.67 3.263c.353.227.579.606.61 1.023 0 .362-.274.503-.61.309l-5.67-3.263c-.353-.227-.579-.606-.61-1.023 0-.362.274-.503.61-.309z" opacity=".6" transform="translate(-972 -455) translate(972 455) translate(115 11) translate(120.947) translate(2.8 14.596)"/>
                                <path fill="#0070FF" d="M32.149 49.349l5.67 3.263c.353.222.579.599.61 1.014 0 .37-.274.512-.61.309l-5.67-3.263c-.354-.222-.58-.599-.61-1.015 0-.361.274-.502.61-.308z" transform="translate(-972 -455) translate(972 455) translate(115 11) translate(120.947) translate(2.8 14.596)"/>
                                <path fill="#FFF" d="M32.149 49.349l5.67 3.263c.353.222.579.599.61 1.014 0 .37-.274.512-.61.309l-5.67-3.263c-.354-.222-.58-.599-.61-1.015 0-.361.274-.502.61-.308z" opacity=".6" transform="translate(-972 -455) translate(972 455) translate(115 11) translate(120.947) translate(2.8 14.596)"/>
                                <path fill="#0070FF" d="M46.642 36.48l7.26 4.208c.358.22.587.596.619 1.014 0 .37-.274.503-.619.309l-7.26-4.198c-.357-.224-.586-.604-.618-1.023-.017-.362.274-.503.618-.31z" transform="translate(-972 -455) translate(972 455) translate(115 11) translate(120.947) translate(2.8 14.596)"/>
                                <path fill="#FFF" d="M46.642 36.48l7.26 4.208c.358.22.587.596.619 1.014 0 .37-.274.503-.619.309l-7.26-4.198c-.357-.224-.586-.604-.618-1.023-.017-.362.274-.503.618-.31z" opacity=".6" transform="translate(-972 -455) translate(972 455) translate(115 11) translate(120.947) translate(2.8 14.596)"/>
                                <path fill="#FFF" d="M57.877 74.793l48.86 28.09c.353.222.58.599.609 1.015 0 .361-.274.502-.61.308l-48.86-28.09c-.356-.22-.586-.597-.617-1.014 0-.37.273-.503.618-.309zM99.467 93.376l7.27 4.198c.352.223.578.599.609 1.014 0 .37-.274.503-.61.31l-7.269-4.2c-.352-.222-.578-.598-.609-1.013 0-.37.274-.512.61-.309zM48.232 63.919l48.86 28.09c.352.226.578.605.609 1.023 0 .362-.274.503-.61.309l-48.859-28.1c-.354-.225-.58-.604-.61-1.023 0-.361.275-.502.61-.3z" transform="translate(-972 -455) translate(972 455) translate(115 11) translate(120.947) translate(2.8 14.596)"/>
                                <path fill="#0070FF" d="M41.343 38.756l12.109 6.95c.36.217.59.596.618 1.014 0 .362-.274.503-.618.31l-12.109-6.924c-.357-.22-.587-.597-.618-1.015-.018-.396.274-.538.618-.335z" transform="translate(-972 -455) translate(972 455) translate(115 11) translate(120.947) translate(2.8 14.596)"/>
                                <path fill="#FFF" d="M41.343 38.756l12.109 6.95c.36.217.59.596.618 1.014 0 .362-.274.503-.618.31l-12.109-6.924c-.357-.22-.587-.597-.618-1.015-.018-.396.274-.538.618-.335z" opacity=".6" transform="translate(-972 -455) translate(972 455) translate(115 11) translate(120.947) translate(2.8 14.596)"/>
                                <path fill="#0070FF" d="M55.828 47.073l50.546 29.193c.353.226.579.605.61 1.023 0 .362-.274.503-.61.309L55.828 48.396c-.353-.222-.579-.599-.61-1.014 0-.37.274-.503.61-.309z" transform="translate(-972 -455) translate(972 455) translate(115 11) translate(120.947) translate(2.8 14.596)"/>
                                <path fill="#FFF" d="M55.828 47.073l50.546 29.193c.353.226.579.605.61 1.023 0 .362-.274.503-.61.309L55.828 48.396c-.353-.222-.579-.599-.61-1.014 0-.37.274-.503.61-.309z" opacity=".6" transform="translate(-972 -455) translate(972 455) translate(115 11) translate(120.947) translate(2.8 14.596)"/>
                                <path fill="#E6E6E6" d="M41.343 70.657l65.358 37.65c.353.223.579.6.61 1.015 0 .37-.274.511-.61.317L41.343 71.98c-.361-.213-.598-.587-.636-1.005 0-.379.292-.511.636-.317z" transform="translate(-972 -455) translate(972 455) translate(115 11) translate(120.947) translate(2.8 14.596)"/>
                                <path fill="#0070FF" d="M32.149 65.356l5.67 3.263c.353.223.579.6.61 1.015 0 .37-.274.502-.61.308l-5.67-3.263c-.354-.221-.58-.598-.61-1.014 0-.362.274-.503.61-.309z" transform="translate(-972 -455) translate(972 455) translate(115 11) translate(120.947) translate(2.8 14.596)"/>
                                <path fill="#FFF" d="M32.149 65.356l5.67 3.263c.353.223.579.6.61 1.015 0 .37-.274.502-.61.308l-5.67-3.263c-.354-.221-.58-.598-.61-1.014 0-.362.274-.503.61-.309z" opacity=".6" transform="translate(-972 -455) translate(972 455) translate(115 11) translate(120.947) translate(2.8 14.596)"/>
                                <path fill="#E6E6E6" d="M41.343 75.948l65.358 37.66c.353.223.579.599.61 1.014 0 .37-.274.503-.61.31l-65.358-37.66c-.363-.212-.6-.587-.636-1.006 0-.37.292-.512.636-.318z" transform="translate(-972 -455) translate(972 455) translate(115 11) translate(120.947) translate(2.8 14.596)"/>
                                <path fill="#0070FF" d="M32.149 70.657l5.67 3.263c.354.221.58.598.61 1.014 0 .362-.274.503-.61.309l-5.67-3.263c-.353-.223-.579-.6-.61-1.015 0-.37.274-.502.61-.308z" transform="translate(-972 -455) translate(972 455) translate(115 11) translate(120.947) translate(2.8 14.596)"/>
                                <path fill="#FFF" d="M32.149 70.657l5.67 3.263c.354.221.58.598.61 1.014 0 .362-.274.503-.61.309l-5.67-3.263c-.353-.223-.579-.6-.61-1.015 0-.37.274-.502.61-.308z" opacity=".6" transform="translate(-972 -455) translate(972 455) translate(115 11) translate(120.947) translate(2.8 14.596)"/>
                                <path fill="#E6E6E6" d="M41.343 81.25l65.358 37.659c.354.221.58.598.61 1.014 0 .362-.274.503-.61.309l-65.358-37.66c-.364-.215-.6-.593-.636-1.014 0-.37.292-.503.636-.309z" transform="translate(-972 -455) translate(972 455) translate(115 11) translate(120.947) translate(2.8 14.596)"/>
                                <path fill="#0070FF" d="M32.149 75.948l5.67 3.264c.353.222.579.599.61 1.014 0 .37-.274.512-.61.318l-5.67-3.273c-.354-.221-.58-.598-.61-1.014 0-.361.274-.503.61-.309z" transform="translate(-972 -455) translate(972 455) translate(115 11) translate(120.947) translate(2.8 14.596)"/>
                                <path fill="#FFF" d="M32.149 75.948l5.67 3.264c.353.222.579.599.61 1.014 0 .37-.274.512-.61.318l-5.67-3.273c-.354-.221-.58-.598-.61-1.014 0-.361.274-.503.61-.309z" opacity=".6" transform="translate(-972 -455) translate(972 455) translate(115 11) translate(120.947) translate(2.8 14.596)"/>
                                <g fill="#FFF" opacity=".6">
                                    <path d="M.61.079l3.33 1.923c.356.233.58.624.6 1.05v1.225c0 .38-.265.538-.6.344L.61 2.698C.25 2.47.023 2.082 0 1.658V.432C0 .044.274-.106.61.079zM.61 5.432l3.33 1.923c.354.232.576.618.6 1.04v1.227c0 .388-.265.538-.6.353L.61 8.052C.25 7.819.023 7.429 0 7.002V5.776c0-.379.274-.538.61-.344zM.61 10.777L3.94 12.7c.356.234.58.624.6 1.05v1.225c0 .38-.265.538-.6.344L.61 13.397c-.357-.231-.583-.617-.61-1.041V11.13c0-.388.274-.538.61-.353zM.61 16.13l3.33 1.923c.354.232.576.619.6 1.041v1.226c0 .388-.265.538-.6.353L.61 18.75c-.36-.233-.586-.623-.61-1.05v-1.225c0-.38.274-.538.61-.344zM.61 21.475l3.33 1.923c.356.234.58.624.6 1.05v1.217c0 .388-.265.546-.6.352L.61 24.095c-.357-.231-.583-.617-.61-1.041v-1.226c0-.388.274-.547.61-.353zM.61 26.829l3.33 1.922c.356.23.58.618.6 1.041v1.226c0 .388-.265.538-.6.353L.61 29.448c-.36-.233-.586-.622-.61-1.05v-1.225c0-.38.274-.538.61-.344zM.61 32.173l3.33 1.923c.356.234.58.624.6 1.05v1.217c0 .388-.265.547-.6.353L.61 34.793c-.357-.231-.583-.617-.61-1.04v-1.227c0-.388.274-.547.61-.353zM.61 37.527l3.33 1.923c.356.23.58.617.6 1.04v1.226c0 .388-.265.538-.6.344L.61 40.146c-.36-.232-.586-.622-.61-1.05v-1.225c0-.38.274-.538.61-.344zM.61 42.872l3.33 1.922c.356.234.58.624.6 1.05v1.217c0 .388-.265.547-.6.353L.61 45.49c-.36-.233-.586-.623-.61-1.05v-1.217c0-.388.274-.546.61-.352zM.61 48.225l3.33 1.923c.357.229.58.617.6 1.04v1.226c0 .388-.265.538-.6.344L.61 50.871c-.36-.233-.586-.623-.61-1.05v-1.225c0-.37.274-.565.61-.37zM.61 53.57l3.33 1.922c.356.234.58.624.6 1.05v1.217c0 .388-.265.547-.6.353l-3.33-1.95C.25 55.93.023 55.54 0 55.114v-1.217c0-.38.274-.52.61-.326zM.61 58.923l3.33 1.914c.356.234.58.624.6 1.05v1.226c0 .388-.265.538-.6.344L.61 61.543c-.36-.233-.586-.623-.61-1.05v-1.226c0-.379.274-.538.61-.344z" transform="translate(-972 -455) translate(972 455) translate(115 11) translate(120.947) translate(2.8 14.596) translate(22.707 17.457)"/>
                                </g>
                                <path fill="#37474F" d="M1.21.162l18.018 10.39c.716.46 1.167 1.239 1.21 2.09V33.42c0 .768-.54 1.085-1.21.697L1.21 23.727C.493 23.267.043 22.489 0 21.638V.867C0 .091.539-.217 1.21.162z" transform="translate(-972 -455) translate(972 455) translate(115 11) translate(120.947) translate(2.8 14.596)"/>
                                <path fill="#0070FF" d="M2.88 20.755l1.66.962c.354.222.583.598.618 1.014 0 .37-.283.503-.618.309l-1.66-.962c-.354-.221-.58-.598-.61-1.014 0-.361.274-.503.61-.309z" transform="translate(-972 -455) translate(972 455) translate(115 11) translate(120.947) translate(2.8 14.596)"/>
                                <path fill="#FFF" d="M2.88 20.755l1.66.962c.354.222.583.598.618 1.014 0 .37-.283.503-.618.309l-1.66-.962c-.354-.221-.58-.598-.61-1.014 0-.361.274-.503.61-.309z" opacity=".6" transform="translate(-972 -455) translate(972 455) translate(115 11) translate(120.947) translate(2.8 14.596)"/>
                                <path fill="#0070FF" d="M2.88 3.743l1.66.96c.354.223.583.599.618 1.015 0 .37-.283.503-.618.309l-1.66-.953c-.354-.226-.58-.605-.61-1.023 0-.361.274-.503.61-.308z" transform="translate(-972 -455) translate(972 455) translate(115 11) translate(120.947) translate(2.8 14.596)"/>
                                <path fill="#FFF" d="M2.88 3.743l1.66.96c.354.223.583.599.618 1.015 0 .37-.283.503-.618.309l-1.66-.953c-.354-.226-.58-.605-.61-1.023 0-.361.274-.503.61-.308z" opacity=".6" transform="translate(-972 -455) translate(972 455) translate(115 11) translate(120.947) translate(2.8 14.596)"/>
                                <path fill="#0070FF" d="M5.211 8.487l1.66.953c.353.222.58.599.61 1.014 0 .37-.274.512-.61.309l-1.66-.953c-.353-.222-.579-.598-.61-1.014 0-.37.274-.503.61-.309z" transform="translate(-972 -455) translate(972 455) translate(115 11) translate(120.947) translate(2.8 14.596)"/>
                                <path fill="#FFF" d="M5.211 8.487l1.66.953c.353.222.58.599.61 1.014 0 .37-.274.512-.61.309l-1.66-.953c-.353-.222-.579-.598-.61-1.014 0-.37.274-.503.61-.309z" opacity=".6" transform="translate(-972 -455) translate(972 455) translate(115 11) translate(120.947) translate(2.8 14.596)"/>
                                <path fill="#0070FF" d="M5.211 11.883l1.66.961c.353.223.58.6.61 1.015 0 .37-.274.502-.61.308l-1.66-.952c-.353-.223-.579-.6-.61-1.015 0-.379.274-.52.61-.317z" transform="translate(-972 -455) translate(972 455) translate(115 11) translate(120.947) translate(2.8 14.596)"/>
                                <path fill="#FFF" d="M5.211 11.883l1.66.961c.353.223.58.6.61 1.015 0 .37-.274.502-.61.308l-1.66-.952c-.353-.223-.579-.6-.61-1.015 0-.379.274-.52.61-.317z" opacity=".6" transform="translate(-972 -455) translate(972 455) translate(115 11) translate(120.947) translate(2.8 14.596)"/>
                                <path fill="#0070FF" d="M2.88 13.947l1.66.961c.354.223.583.598.618 1.014 0 .37-.283.503-.618.309l-1.66-.952c-.355-.226-.58-.605-.61-1.024 0-.361.274-.502.61-.308z" transform="translate(-972 -455) translate(972 455) translate(115 11) translate(120.947) translate(2.8 14.596)"/>
                                <path fill="#FFF" d="M2.88 13.947l1.66.961c.354.223.583.598.618 1.014 0 .37-.283.503-.618.309l-1.66-.952c-.355-.226-.58-.605-.61-1.024 0-.361.274-.502.61-.308z" opacity=".6" transform="translate(-972 -455) translate(972 455) translate(115 11) translate(120.947) translate(2.8 14.596)"/>
                                <path fill="#0070FF" d="M5.211 18.692l1.66.961c.354.222.58.598.61 1.014 0 .362-.274.503-.61.309l-1.66-.961c-.354-.222-.58-.599-.61-1.015 0-.361.274-.502.61-.308z" transform="translate(-972 -455) translate(972 455) translate(115 11) translate(120.947) translate(2.8 14.596)"/>
                                <path fill="#FFF" d="M5.211 18.692l1.66.961c.354.222.58.598.61 1.014 0 .362-.274.503-.61.309l-1.66-.961c-.354-.222-.58-.599-.61-1.015 0-.361.274-.502.61-.308z" opacity=".6" transform="translate(-972 -455) translate(972 455) translate(115 11) translate(120.947) translate(2.8 14.596)"/>
                                <path fill="#0070FF" d="M7.428 6.362l10.121 5.847c.36.218.59.596.619 1.015 0 .361-.274.502-.619.308L7.428 7.694c-.36-.222-.59-.603-.618-1.023 0-.362.273-.503.618-.31z" transform="translate(-972 -455) translate(972 455) translate(115 11) translate(120.947) translate(2.8 14.596)"/>
                                <path fill="#FFF" d="M7.428 6.362l10.121 5.847c.36.218.59.596.619 1.015 0 .361-.274.502-.619.308L7.428 7.694c-.36-.222-.59-.603-.618-1.023 0-.362.273-.503.618-.31z" opacity=".8" transform="translate(-972 -455) translate(972 455) translate(115 11) translate(120.947) translate(2.8 14.596)"/>
                                <path fill="#0070FF" d="M7.428 23.348l10.121 5.848c.36.217.59.596.619 1.014 0 .362-.274.503-.619.309L7.428 24.68c-.358-.223-.587-.603-.618-1.023 0-.309.273-.476.618-.309z" transform="translate(-972 -455) translate(972 455) translate(115 11) translate(120.947) translate(2.8 14.596)"/>
                                <path fill="#FFF" d="M7.428 23.348l10.121 5.848c.36.217.59.596.619 1.014 0 .362-.274.503-.619.309L7.428 24.68c-.358-.223-.587-.603-.618-1.023 0-.309.273-.476.618-.309z" opacity=".8" transform="translate(-972 -455) translate(972 455) translate(115 11) translate(120.947) translate(2.8 14.596)"/>
                                <path fill="#0070FF" d="M9.795 11.107l7.79 4.498c.36.221.59.602.618 1.023 0 .362-.274.503-.618.309l-7.79-4.507c-.357-.22-.587-.597-.618-1.014-.036-.37.238-.503.618-.31z" transform="translate(-972 -455) translate(972 455) translate(115 11) translate(120.947) translate(2.8 14.596)"/>
                                <path fill="#FFF" d="M9.795 11.107l7.79 4.498c.36.221.59.602.618 1.023 0 .362-.274.503-.618.309l-7.79-4.507c-.357-.22-.587-.597-.618-1.014-.036-.37.238-.503.618-.31z" opacity=".8" transform="translate(-972 -455) translate(972 455) translate(115 11) translate(120.947) translate(2.8 14.596)"/>
                                <path fill="#0070FF" d="M9.795 14.529l7.79 4.507c.357.22.587.596.618 1.014 0 .37-.274.503-.618.309l-7.79-4.525c-.357-.22-.587-.597-.618-1.014-.036-.37.238-.512.618-.291z" transform="translate(-972 -455) translate(972 455) translate(115 11) translate(120.947) translate(2.8 14.596)"/>
                                <path fill="#FFF" d="M9.795 14.529l7.79 4.507c.357.22.587.596.618 1.014 0 .37-.274.503-.618.309l-7.79-4.525c-.357-.22-.587-.597-.618-1.014-.036-.37.238-.512.618-.291z" opacity=".8" transform="translate(-972 -455) translate(972 455) translate(115 11) translate(120.947) translate(2.8 14.596)"/>
                                <path fill="#0070FF" d="M7.428 16.575l10.121 5.839c.357.22.587.596.619 1.014 0 .37-.274.503-.619.309L7.428 17.898c-.357-.22-.587-.597-.618-1.014 0-.37.273-.503.618-.309z" transform="translate(-972 -455) translate(972 455) translate(115 11) translate(120.947) translate(2.8 14.596)"/>
                                <path fill="#FFF" d="M7.428 16.575l10.121 5.839c.357.22.587.596.619 1.014 0 .37-.274.503-.619.309L7.428 17.898c-.357-.22-.587-.597-.618-1.014 0-.37.273-.503.618-.309z" opacity=".8" transform="translate(-972 -455) translate(972 455) translate(115 11) translate(120.947) translate(2.8 14.596)"/>
                                <path fill="#0070FF" d="M9.795 21.311l7.79 4.507c.359.217.59.596.618 1.014 0 .362-.274.503-.618.309l-7.79-4.507c-.36-.217-.59-.596-.618-1.014-.036-.362.238-.503.618-.309z" transform="translate(-972 -455) translate(972 455) translate(115 11) translate(120.947) translate(2.8 14.596)"/>
                                <path fill="#FFF" d="M9.795 21.311l7.79 4.507c.359.217.59.596.618 1.014 0 .362-.274.503-.618.309l-7.79-4.507c-.36-.217-.59-.596-.618-1.014-.036-.362.238-.503.618-.309z" opacity=".8" transform="translate(-972 -455) translate(972 455) translate(115 11) translate(120.947) translate(2.8 14.596)"/>
                                <path fill="#37474F" d="M1.21 27.644l18.018 10.38c.714.46 1.164 1.234 1.21 2.082v41.046c0 .776-.54 1.085-1.21.697L1.21 71.459C.493 70.998.043 70.22 0 69.37V28.34c0-.776.539-1.084 1.21-.696z" transform="translate(-972 -455) translate(972 455) translate(115 11) translate(120.947) translate(2.8 14.596)"/>
                                <path fill="#0070FF" d="M2.88 31.216l1.66.952c.354.223.583.598.618 1.014 0 .37-.283.503-.618.309l-1.66-.953c-.353-.222-.58-.598-.61-1.014 0-.361.274-.502.61-.308z" transform="translate(-972 -455) translate(972 455) translate(115 11) translate(120.947) translate(2.8 14.596)"/>
                                <path fill="#FFF" d="M2.88 31.216l1.66.952c.354.223.583.598.618 1.014 0 .37-.283.503-.618.309l-1.66-.953c-.353-.222-.58-.598-.61-1.014 0-.361.274-.502.61-.308z" opacity=".6" transform="translate(-972 -455) translate(972 455) translate(115 11) translate(120.947) translate(2.8 14.596)"/>
                                <path fill="#0070FF" d="M5.211 35.96l1.66.953c.354.225.58.605.61 1.023 0 .362-.274.503-.61.309l-1.66-.962c-.353-.222-.579-.598-.61-1.014 0-.37.274-.503.61-.309z" transform="translate(-972 -455) translate(972 455) translate(115 11) translate(120.947) translate(2.8 14.596)"/>
                                <path fill="#FFF" d="M5.211 35.96l1.66.953c.354.225.58.605.61 1.023 0 .362-.274.503-.61.309l-1.66-.962c-.353-.222-.579-.598-.61-1.014 0-.37.274-.503.61-.309z" opacity=".6" transform="translate(-972 -455) translate(972 455) translate(115 11) translate(120.947) translate(2.8 14.596)"/>
                                <path fill="#0070FF" d="M5.211 39.356l1.66.953c.353.222.58.598.61 1.014 0 .37-.274.503-.61.308l-1.66-.952c-.353-.223-.579-.599-.61-1.014 0-.37.274-.512.61-.309z" transform="translate(-972 -455) translate(972 455) translate(115 11) translate(120.947) translate(2.8 14.596)"/>
                                <path fill="#FFF" d="M5.211 39.356l1.66.953c.353.222.58.598.61 1.014 0 .37-.274.503-.61.308l-1.66-.952c-.353-.223-.579-.599-.61-1.014 0-.37.274-.512.61-.309z" opacity=".6" transform="translate(-972 -455) translate(972 455) translate(115 11) translate(120.947) translate(2.8 14.596)"/>
                                <path fill="#0070FF" d="M2.88 41.429l1.66.952c.354.223.583.598.618 1.014 0 .37-.283.503-.618.31l-1.66-.953c-.353-.223-.58-.6-.61-1.015 0-.37.274-.511.61-.308z" transform="translate(-972 -455) translate(972 455) translate(115 11) translate(120.947) translate(2.8 14.596)"/>
                                <path fill="#FFF" d="M2.88 41.429l1.66.952c.354.223.583.598.618 1.014 0 .37-.283.503-.618.31l-1.66-.953c-.353-.223-.58-.6-.61-1.015 0-.37.274-.511.61-.308z" opacity=".6" transform="translate(-972 -455) translate(972 455) translate(115 11) translate(120.947) translate(2.8 14.596)"/>
                                <path fill="#0070FF" d="M7.428 33.844l10.121 5.838c.36.218.59.596.619 1.015 0 .361-.274.502-.619.308L7.428 35.167c-.357-.22-.587-.597-.618-1.015 0-.37.273-.511.618-.308z" transform="translate(-972 -455) translate(972 455) translate(115 11) translate(120.947) translate(2.8 14.596)"/>
                                <path fill="#FFF" d="M7.428 33.844l10.121 5.838c.36.218.59.596.619 1.015 0 .361-.274.502-.619.308L7.428 35.167c-.357-.22-.587-.597-.618-1.015 0-.37.273-.511.618-.308z" opacity=".8" transform="translate(-972 -455) translate(972 455) translate(115 11) translate(120.947) translate(2.8 14.596)"/>
                                <path fill="#0070FF" d="M9.795 38.58l7.79 4.507c.359.217.59.596.618 1.014 0 .362-.274.503-.618.309l-7.79-4.507c-.357-.22-.587-.597-.618-1.014-.036-.37.238-.503.618-.31z" transform="translate(-972 -455) translate(972 455) translate(115 11) translate(120.947) translate(2.8 14.596)"/>
                                <path fill="#FFF" d="M9.795 38.58l7.79 4.507c.359.217.59.596.618 1.014 0 .362-.274.503-.618.309l-7.79-4.507c-.357-.22-.587-.597-.618-1.014-.036-.37.238-.503.618-.31z" opacity=".8" transform="translate(-972 -455) translate(972 455) translate(115 11) translate(120.947) translate(2.8 14.596)"/>
                                <path fill="#0070FF" d="M9.795 41.984l7.79 4.498c.357.22.587.597.618 1.014 0 .37-.274.512-.618.318l-7.79-4.507c-.357-.22-.587-.597-.618-1.014-.036-.37.238-.512.618-.309z" transform="translate(-972 -455) translate(972 455) translate(115 11) translate(120.947) translate(2.8 14.596)"/>
                                <path fill="#FFF" d="M9.795 41.984l7.79 4.498c.357.22.587.597.618 1.014 0 .37-.274.512-.618.318l-7.79-4.507c-.357-.22-.587-.597-.618-1.014-.036-.37.238-.512.618-.309z" opacity=".8" transform="translate(-972 -455) translate(972 455) translate(115 11) translate(120.947) translate(2.8 14.596)"/>
                                <path fill="#0070FF" d="M7.428 44.048l10.121 5.839c.357.22.587.596.619 1.014 0 .37-.274.503-.619.309L7.428 45.397c-.357-.22-.587-.596-.618-1.014 0-.397.273-.529.618-.335z" transform="translate(-972 -455) translate(972 455) translate(115 11) translate(120.947) translate(2.8 14.596)"/>
                                <path fill="#FFF" d="M7.428 44.048l10.121 5.839c.357.22.587.596.619 1.014 0 .37-.274.503-.619.309L7.428 45.397c-.357-.22-.587-.596-.618-1.014 0-.397.273-.529.618-.335z" opacity=".8" transform="translate(-972 -455) translate(972 455) translate(115 11) translate(120.947) translate(2.8 14.596)"/>
                                <path fill="#0070FF" d="M5.211 46.182l1.66.962c.353.222.58.599.61 1.014 0 .37-.274.503-.61.309l-1.66-.953c-.353-.222-.579-.599-.61-1.014 0-.37.274-.512.61-.318z" transform="translate(-972 -455) translate(972 455) translate(115 11) translate(120.947) translate(2.8 14.596)"/>
                                <path fill="#FFF" d="M5.211 46.182l1.66.962c.353.222.58.599.61 1.014 0 .37-.274.503-.61.309l-1.66-.953c-.353-.222-.579-.599-.61-1.014 0-.37.274-.512.61-.318z" opacity=".6" transform="translate(-972 -455) translate(972 455) translate(115 11) translate(120.947) translate(2.8 14.596)"/>
                                <path fill="#0070FF" d="M5.211 49.578l1.66.961c.353.223.58.6.61 1.015 0 .361-.274.502-.61.308l-1.66-.961c-.354-.222-.58-.599-.61-1.014 0-.362.274-.503.61-.31z" transform="translate(-972 -455) translate(972 455) translate(115 11) translate(120.947) translate(2.8 14.596)"/>
                                <path fill="#FFF" d="M5.211 49.578l1.66.961c.353.223.58.6.61 1.015 0 .361-.274.502-.61.308l-1.66-.961c-.354-.222-.58-.599-.61-1.014 0-.362.274-.503.61-.31z" opacity=".6" transform="translate(-972 -455) translate(972 455) translate(115 11) translate(120.947) translate(2.8 14.596)"/>
                                <path fill="#0070FF" d="M9.795 48.802l7.79 4.507c.357.22.587.596.618 1.014 0 .37-.274.511-.618.309l-7.79-4.498c-.357-.22-.587-.597-.618-1.015-.036-.37.238-.511.618-.317z" transform="translate(-972 -455) translate(972 455) translate(115 11) translate(120.947) translate(2.8 14.596)"/>
                                <path fill="#FFF" d="M9.795 48.802l7.79 4.507c.357.22.587.596.618 1.014 0 .37-.274.511-.618.309l-7.79-4.498c-.357-.22-.587-.597-.618-1.015-.036-.37.238-.511.618-.317z" opacity=".8" transform="translate(-972 -455) translate(972 455) translate(115 11) translate(120.947) translate(2.8 14.596)"/>
                                <path fill="#0070FF" d="M9.795 52.206l7.79 4.507c.357.22.587.597.618 1.014 0 .37-.274.503-.618.309l-7.79-4.507c-.36-.217-.59-.596-.618-1.014-.036-.362.238-.503.618-.309z" transform="translate(-972 -455) translate(972 455) translate(115 11) translate(120.947) translate(2.8 14.596)"/>
                                <path fill="#FFF" d="M9.795 52.206l7.79 4.507c.357.22.587.597.618 1.014 0 .37-.274.503-.618.309l-7.79-4.507c-.36-.217-.59-.596-.618-1.014-.036-.362.238-.503.618-.309z" opacity=".8" transform="translate(-972 -455) translate(972 455) translate(115 11) translate(120.947) translate(2.8 14.596)"/>
                                <path fill="#0070FF" d="M2.88 58.477l1.66.961c.356.22.585.597.618 1.014 0 .362-.283.503-.618.31L2.88 59.8c-.354-.222-.58-.599-.61-1.014 0-.362.274-.503.61-.31z" transform="translate(-972 -455) translate(972 455) translate(115 11) translate(120.947) translate(2.8 14.596)"/>
                                <path fill="#FFF" d="M2.88 58.477l1.66.961c.356.22.585.597.618 1.014 0 .362-.283.503-.618.31L2.88 59.8c-.354-.222-.58-.599-.61-1.014 0-.362.274-.503.61-.31z" opacity=".6" transform="translate(-972 -455) translate(972 455) translate(115 11) translate(120.947) translate(2.8 14.596)"/>
                                <path fill="#0070FF" d="M7.428 61.096l10.121 5.848c.36.217.59.595.619 1.014 0 .362-.274.503-.619.309L7.428 62.428c-.357-.22-.587-.597-.618-1.014 0-.37.273-.512.618-.318z" transform="translate(-972 -455) translate(972 455) translate(115 11) translate(120.947) translate(2.8 14.596)"/>
                                <path fill="#FFF" d="M7.428 61.096l10.121 5.848c.36.217.59.595.619 1.014 0 .362-.274.503-.619.309L7.428 62.428c-.357-.22-.587-.597-.618-1.014 0-.37.273-.512.618-.318z" opacity=".8" transform="translate(-972 -455) translate(972 455) translate(115 11) translate(120.947) translate(2.8 14.596)"/>
                                <path fill="#0070FF" d="M5.211 63.24l1.66.96c.354.222.58.6.61 1.015 0 .362-.274.503-.61.309l-1.66-.962c-.354-.221-.58-.598-.61-1.014 0-.361.274-.511.61-.309z" transform="translate(-972 -455) translate(972 455) translate(115 11) translate(120.947) translate(2.8 14.596)"/>
                                <path fill="#FFF" d="M5.211 63.24l1.66.96c.354.222.58.6.61 1.015 0 .362-.274.503-.61.309l-1.66-.962c-.354-.221-.58-.598-.61-1.014 0-.361.274-.511.61-.309z" opacity=".6" transform="translate(-972 -455) translate(972 455) translate(115 11) translate(120.947) translate(2.8 14.596)"/>
                                <path fill="#0070FF" d="M5.211 66.635l1.66.953c.353.226.58.605.61 1.023 0 .361-.274.502-.61.308l-1.66-.961c-.353-.223-.579-.599-.61-1.014 0-.38.274-.503.61-.309z" transform="translate(-972 -455) translate(972 455) translate(115 11) translate(120.947) translate(2.8 14.596)"/>
                                <path fill="#FFF" d="M5.211 66.635l1.66.953c.353.226.58.605.61 1.023 0 .361-.274.502-.61.308l-1.66-.961c-.353-.223-.579-.599-.61-1.014 0-.38.274-.503.61-.309z" opacity=".6" transform="translate(-972 -455) translate(972 455) translate(115 11) translate(120.947) translate(2.8 14.596)"/>
                                <path fill="#0070FF" d="M9.795 65.859l7.79 4.507c.359.217.59.595.618 1.014 0 .362-.274.503-.618.309l-7.79-4.507c-.36-.218-.59-.596-.618-1.014-.036-.362.238-.486.618-.31z" transform="translate(-972 -455) translate(972 455) translate(115 11) translate(120.947) translate(2.8 14.596)"/>
                                <path fill="#FFF" d="M9.795 65.859l7.79 4.507c.359.217.59.595.618 1.014 0 .362-.274.503-.618.309l-7.79-4.507c-.36-.218-.59-.596-.618-1.014-.036-.362.238-.486.618-.31z" opacity=".8" transform="translate(-972 -455) translate(972 455) translate(115 11) translate(120.947) translate(2.8 14.596)"/>
                                <path fill="#0070FF" d="M9.795 69.263l7.79 4.507c.359.217.59.596.618 1.014 0 .362-.274.503-.618.309l-7.79-4.507c-.357-.22-.587-.597-.618-1.014-.036-.362.238-.503.618-.309z" transform="translate(-972 -455) translate(972 455) translate(115 11) translate(120.947) translate(2.8 14.596)"/>
                                <path fill="#FFF" d="M9.795 69.263l7.79 4.507c.359.217.59.596.618 1.014 0 .362-.274.503-.618.309l-7.79-4.507c-.357-.22-.587-.597-.618-1.014-.036-.362.238-.503.618-.309z" opacity=".8" transform="translate(-972 -455) translate(972 455) translate(115 11) translate(120.947) translate(2.8 14.596)"/>
                                <path fill="#0070FF" d="M5.211 52.956l1.66.961c.354.222.58.599.61 1.014 0 .362-.274.503-.61.31l-1.66-.962c-.354-.222-.58-.599-.61-1.014 0-.362.274-.503.61-.31z" transform="translate(-972 -455) translate(972 455) translate(115 11) translate(120.947) translate(2.8 14.596)"/>
                                <path fill="#FFF" d="M5.211 52.956l1.66.961c.354.222.58.599.61 1.014 0 .362-.274.503-.61.31l-1.66-.962c-.354-.222-.58-.599-.61-1.014 0-.362.274-.503.61-.31z" opacity=".6" transform="translate(-972 -455) translate(972 455) translate(115 11) translate(120.947) translate(2.8 14.596)"/>
                                <path fill="#0070FF" d="M2.88 55.028l1.66.962c.356.22.585.597.618 1.014 0 .362-.283.503-.618.309l-1.66-.962c-.354-.221-.58-.598-.61-1.014 0-.361.274-.503.61-.309z" transform="translate(-972 -455) translate(972 455) translate(115 11) translate(120.947) translate(2.8 14.596)"/>
                                <path fill="#FFF" d="M2.88 55.028l1.66.962c.356.22.585.597.618 1.014 0 .362-.283.503-.618.309l-1.66-.962c-.354-.221-.58-.598-.61-1.014 0-.361.274-.503.61-.309z" opacity=".6" transform="translate(-972 -455) translate(972 455) translate(115 11) translate(120.947) translate(2.8 14.596)"/>
                                <path fill="#0070FF" d="M9.795 55.584l7.79 4.507c.359.217.59.596.618 1.014 0 .362-.274.503-.618.309l-7.79-4.507c-.36-.217-.59-.596-.618-1.014-.036-.362.238-.503.618-.309z" transform="translate(-972 -455) translate(972 455) translate(115 11) translate(120.947) translate(2.8 14.596)"/>
                                <path fill="#FFF" d="M9.795 55.584l7.79 4.507c.359.217.59.596.618 1.014 0 .362-.274.503-.618.309l-7.79-4.507c-.36-.217-.59-.596-.618-1.014-.036-.362.238-.503.618-.309z" opacity=".8" transform="translate(-972 -455) translate(972 455) translate(115 11) translate(120.947) translate(2.8 14.596)"/>
                                <path fill="#0070FF" d="M7.428 57.648l10.121 5.847c.36.218.59.596.619 1.014 0 .362-.274.503-.619.31l-10.121-5.84c-.358-.223-.587-.603-.618-1.022 0-.362.273-.503.618-.31z" transform="translate(-972 -455) translate(972 455) translate(115 11) translate(120.947) translate(2.8 14.596)"/>
                                <path fill="#FFF" d="M7.428 57.648l10.121 5.847c.36.218.59.596.619 1.014 0 .362-.274.503-.619.31l-10.121-5.84c-.358-.223-.587-.603-.618-1.022 0-.362.273-.503.618-.31z" opacity=".8" transform="translate(-972 -455) translate(972 455) translate(115 11) translate(120.947) translate(2.8 14.596)"/>
                                <path fill="#0070FF" d="M2.88 68.752l1.66.961c.356.22.585.597.618 1.014 0 .362-.283.503-.618.309l-1.66-.944c-.354-.221-.58-.598-.61-1.014 0-.38.274-.52.61-.326z" transform="translate(-972 -455) translate(972 455) translate(115 11) translate(120.947) translate(2.8 14.596)"/>
                                <path fill="#FFF" d="M2.88 68.752l1.66.961c.356.22.585.597.618 1.014 0 .362-.283.503-.618.309l-1.66-.944c-.354-.221-.58-.598-.61-1.014 0-.38.274-.52.61-.326z" opacity=".6" transform="translate(-972 -455) translate(972 455) translate(115 11) translate(120.947) translate(2.8 14.596)"/>
                                <path fill="#0070FF" d="M7.428 71.38l10.121 5.839c.36.217.59.595.619 1.014 0 .361-.274.502-.619.308L7.428 72.738c-.357-.22-.587-.597-.618-1.014 0-.406.273-.547.618-.344z" transform="translate(-972 -455) translate(972 455) translate(115 11) translate(120.947) translate(2.8 14.596)"/>
                                <path fill="#FFF" d="M7.428 71.38l10.121 5.839c.36.217.59.595.619 1.014 0 .361-.274.502-.619.308L7.428 72.738c-.357-.22-.587-.597-.618-1.014 0-.406.273-.547.618-.344z" opacity=".8" transform="translate(-972 -455) translate(972 455) translate(115 11) translate(120.947) translate(2.8 14.596)"/>
                            </g>
                        </g>
                        <g>
                            <g fill="#455A64" opacity=".8">
                                <path d="M0 .892v67.364c.054.986.576 1.887 1.404 2.426L40.16 93.013c.142.083.303.129.468.132h.371l.08-.053.079-.07c.11-.104.198-.23.256-.37.101-.222.152-.463.15-.706v-67.03c-.053-.985-.575-1.887-1.404-2.424L1.404.187C1.13-.007.775-.053.46.063l-.115.07-.097.09C.245.24.245.256.247.274c-.02.023-.035.05-.044.08C.162.405.132.465.115.53.11.57.11.613.115.654v.133C.009.777 0 .839 0 .892z" transform="translate(-972 -455) translate(972 455) translate(115 11) translate(225.201 97.728) translate(0 1.317)"/>
                            </g>
                            <path fill="#0070FF" d="M.46 1.284c.315-.117.669-.07.944.123L40.16 23.712c.83.537 1.351 1.439 1.404 2.425v4.569l2.235-1.288v-4.533c-.053-.984-.575-1.883-1.405-2.417L3.64.19c-.296-.217-.687-.25-1.016-.088C2.367.19.76 1.134.46 1.284z" transform="translate(-972 -455) translate(972 455) translate(115 11) translate(225.201 97.728)"/>
                            <path fill="#0070FF" d="M.009 2.2c0-.881.627-1.234 1.395-.793L40.16 23.712c.828.538 1.35 1.44 1.404 2.425v4.569L.053 6.796.009 2.2z" transform="translate(-972 -455) translate(972 455) translate(115 11) translate(225.201 97.728)"/>
                            <g fill="#FFF" opacity=".5">
                                <path d="M.936 1.407l38.756 22.305c.412.258.752.616.989 1.04l2.225-1.278c-.236-.415-.573-.764-.98-1.015L3.171.19c-.296-.217-.688-.25-1.016-.088C1.908.26.291 1.16 0 1.319c.307-.132.66-.099.936.088z" transform="translate(-972 -455) translate(972 455) translate(115 11) translate(225.201 97.728) translate(.468)"/>
                            </g>
                            <path fill="#000" d="M43.799 29.427v-4.542c-.022-.496-.168-.978-.424-1.402l-2.235 1.27c.263.418.409.9.424 1.393v4.569l2.235-1.288z" opacity=".15" transform="translate(-972 -455) translate(972 455) translate(115 11) translate(225.201 97.728)"/>
                            <path fill="#455A64" d="M39.524 25.59c.512.405.806 1.024.795 1.676 0 .67-.354 1.014-.795.759-.511-.402-.805-1.018-.795-1.667 0-.68.327-1.015.795-.768zM36.671 23.95c.514.399.809 1.017.795 1.667 0 .679-.353 1.014-.795.767-.507-.408-.797-1.026-.786-1.676 0-.705.353-1.014.786-.758zM33.827 22.3c.524.409.825 1.04.813 1.703 0 .67-.354 1.014-.786.758-.515-.402-.81-1.023-.795-1.675-.027-.697.326-1.032.768-.785z" transform="translate(-972 -455) translate(972 455) translate(115 11) translate(225.201 97.728)"/>
                            <g fill="#37474F" opacity=".9">
                                <path d="M0 64.912l.168-.097.433-.247c.072-.05.149-.095.23-.132l.37-.212.75-.423.178-.097c.09-.046.171-.109.238-.185.079-.085.142-.184.185-.291.113-.231.17-.485.168-.741V0L.486 1.288v62.451c-.008.242-.059.481-.15.706-.059.14-.146.266-.257.37-.02.03-.047.054-.079.07v.027z" transform="translate(-972 -455) translate(972 455) translate(115 11) translate(225.201 97.728) translate(41.052 29.418)"/>
                            </g>
                            <path fill="#0070FF" d="M3.224 14.522c-.005-.067.021-.131.07-.177l1.007-.882h.044c.04.02.069.055.08.097.013.047.013.096 0 .142v.696c.006.065.006.13 0 .194-.02.038-.044.073-.07.106l-.54.485.54 1.103c0 .07.052.132.07.194.006.07.006.141 0 .211V17.494c-.023.02-.057.02-.08 0l-.044-.062-1.007-2.09c-.042-.079-.066-.166-.07-.256v-.564zM6.907 13.552c.015-.045.043-.085.08-.115h.15l.37.22c.04.02.069.055.08.098.013.046.013.095 0 .14.003.021.003.042 0 .062L5.82 19.32c-.011.044-.036.084-.07.114H5.6l-.363-.211c-.037-.022-.065-.056-.079-.097-.012-.047-.012-.095 0-.141v-.062l1.749-5.371zM9.583 18.711c.006.07-.02.137-.07.185l-1.008.882c-.016.008-.036.008-.053 0-.037-.021-.065-.056-.08-.097-.011-.046-.011-.095 0-.14v-.698c-.006-.064-.006-.13 0-.194.016-.043.04-.082.072-.114l.53-.485-.53-1.094c-.028-.063-.051-.128-.071-.194-.006-.07-.006-.141 0-.212v-.705c-.016-.03-.016-.067 0-.097h.08c.021.016.04.037.052.061l1.007 2.082c.044.081.068.172.07.265v.555zM12.383 21.454c.043.028.077.068.097.115.012.058.012.118 0 .176v.767c.016.04.016.084 0 .124-.027.026-.07.026-.097 0l-.477-.274c-.043-.027-.077-.067-.097-.114-.013-.058-.013-.118 0-.177v-.714c-.017-.043-.017-.09 0-.132.027-.026.07-.026.097 0l.477.229zM13.972 22.371c.044.028.077.068.098.115.012.058.012.118 0 .176v.768c.016.04.016.084 0 .123-.029.022-.069.022-.098 0l-.477-.273c-.04-.03-.074-.07-.097-.115-.026-.055-.04-.115-.044-.176v-.75c-.003-.048.013-.096.044-.132.028-.026.07-.026.097 0l.477.264zM15.562 23.289c.045.025.08.066.097.114.013.058.013.118 0 .177v.767c.015.04.015.084 0 .123-.028.022-.068.022-.097 0l-.477-.273c-.043-.032-.076-.074-.097-.124-.027-.051-.042-.109-.044-.167v-.785c-.002-.045.014-.09.044-.124.029-.022.069-.022.097 0l.477.292zM3.648 20.625l23.281 13.423c.292.18.48.488.504.83 0 .3-.221.405-.504.246L3.648 21.701c-.286-.18-.469-.484-.495-.82 0-.3.22-.406.495-.256z" transform="translate(-972 -455) translate(972 455) translate(115 11) translate(225.201 97.728)"/>
                            <path fill="#E6E6E6" d="M11.12 37.858L34.4 51.282c.29.176.478.481.504.82 0 .3-.221.415-.504.256L11.12 38.934c-.288-.181-.472-.49-.495-.829 0-.3.22-.405.495-.247zM11.12 46.466l11.155 6.43c.287.182.471.49.494.829 0 .3-.22.406-.494.247l-11.147-6.43c-.287-.178-.471-.483-.494-.82-.009-.3.212-.414.486-.256z" transform="translate(-972 -455) translate(972 455) translate(115 11) translate(225.201 97.728)"/>
                            <path fill="#0070FF" d="M28.863 35.16l9.274 5.291c.29.176.478.482.504.82 0 .3-.23.415-.504.256l-9.274-5.291c-.287-.178-.471-.484-.494-.82 0-.3.22-.415.494-.256zM3.648 68.004l23.281 13.423c.29.176.479.482.504.82 0 .3-.221.415-.504.256L3.648 69.08c-.288-.182-.472-.49-.495-.83 0-.3.22-.405.495-.246zM28.863 82.539l9.274 5.291c.29.181.477.489.504.83 0 .29-.23.405-.504.246l-9.274-5.291c-.287-.182-.471-.49-.494-.83 0-.29.22-.405.494-.246zM28.863 69.635l9.274 5.292c.29.177.477.482.504.82 0 .3-.23.415-.504.256l-9.274-5.292c-.287-.181-.471-.49-.494-.829 0-.29.22-.405.494-.247zM28.863 73.948l9.274 5.292c.288.18.474.483.504.82 0 .3-.23.415-.504.256l-9.274-5.292c-.287-.182-.471-.49-.494-.829 0-.3.22-.406.494-.247zM20.95 65.067l5.21 3.007c.293.175.48.482.504.82 0 .3-.22.415-.503.256l-5.211-3.007c-.288-.182-.472-.49-.495-.83 0-.29.221-.405.495-.246zM3.648 24.947L17.23 32.77c.286.18.47.484.495.82 0 .3-.22.414-.495.256L3.648 26.023c-.288-.182-.472-.49-.495-.83 0-.308.22-.405.495-.246z" transform="translate(-972 -455) translate(972 455) translate(115 11) translate(225.201 97.728)"/>
                            <path fill="#FFF" d="M3.648 24.947L17.23 32.77c.286.18.47.484.495.82 0 .3-.22.414-.495.256L3.648 26.023c-.288-.182-.472-.49-.495-.83 0-.308.22-.405.495-.246z" opacity=".6" transform="translate(-972 -455) translate(972 455) translate(115 11) translate(225.201 97.728)"/>
                            <path fill="#0070FF" d="M3.648 29.242l4.61 2.646c.285.18.469.484.495.82 0 .3-.221.414-.495.256l-4.61-2.646c-.286-.18-.469-.484-.495-.82 0-.3.22-.415.495-.256z" transform="translate(-972 -455) translate(972 455) translate(115 11) translate(225.201 97.728)"/>
                            <path fill="#FFF" d="M3.648 29.242l4.61 2.646c.285.18.469.484.495.82 0 .3-.221.414-.495.256l-4.61-2.646c-.286-.18-.469-.484-.495-.82 0-.3.22-.415.495-.256z" opacity=".6" transform="translate(-972 -455) translate(972 455) translate(115 11) translate(225.201 97.728)"/>
                            <path fill="#0070FF" d="M3.648 33.546l4.61 2.646c.288.181.471.49.495.829 0 .29-.221.405-.495.247l-4.61-2.646c-.289-.177-.473-.483-.495-.82 0-.3.22-.415.495-.256z" transform="translate(-972 -455) translate(972 455) translate(115 11) translate(225.201 97.728)"/>
                            <path fill="#FFF" d="M3.648 33.546l4.61 2.646c.288.181.471.49.495.829 0 .29-.221.405-.495.247l-4.61-2.646c-.289-.177-.473-.483-.495-.82 0-.3.22-.415.495-.256z" opacity=".6" transform="translate(-972 -455) translate(972 455) translate(115 11) translate(225.201 97.728)"/>
                            <path fill="#0070FF" d="M3.648 37.858l4.61 2.646c.287.178.472.484.495.82 0 .3-.221.415-.495.256l-4.61-2.646c-.288-.181-.472-.49-.495-.829 0-.3.22-.405.495-.247z" transform="translate(-972 -455) translate(972 455) translate(115 11) translate(225.201 97.728)"/>
                            <path fill="#FFF" d="M3.648 37.858l4.61 2.646c.288.182.471.49.495.83 0 .3-.221.405-.495.246l-4.61-2.646c-.288-.181-.472-.49-.495-.829 0-.3.22-.405.495-.247z" opacity=".6" transform="translate(-972 -455) translate(972 455) translate(115 11) translate(225.201 97.728)"/>
                            <path fill="#0070FF" d="M11.12 42.162l13.583 7.823c.288.182.472.49.495.83 0 .29-.22.405-.495.246L11.12 43.238c-.288-.181-.472-.49-.495-.829 0-.29.22-.405.495-.247zM26.629 51.097l5.909 3.422c.288.177.472.482.494.82 0 .3-.22.414-.494.256l-5.91-3.422c-.284-.18-.468-.484-.494-.82 0-.3.221-.415.495-.256z" opacity=".6" transform="translate(-972 -455) translate(972 455) translate(115 11) translate(225.201 97.728)"/>
                            <path fill="#FFF" d="M11.12 42.162l13.583 7.823c.288.182.472.49.495.83 0 .29-.22.405-.495.246L11.12 43.238c-.288-.181-.472-.49-.495-.829 0-.29.22-.405.495-.247zM26.629 51.097l5.909 3.422c.288.177.472.482.494.82 0 .3-.22.414-.494.256l-5.91-3.422c-.284-.18-.468-.484-.494-.82 0-.3.221-.415.495-.256z" opacity=".6" transform="translate(-972 -455) translate(972 455) translate(115 11) translate(225.201 97.728)"/>
                            <path fill="#0070FF" d="M3.648 42.162l4.61 2.646c.285.18.469.484.495.82 0 .3-.221.415-.495.256l-4.61-2.646c-.286-.18-.469-.484-.495-.82 0-.3.22-.414.495-.256z" transform="translate(-972 -455) translate(972 455) translate(115 11) translate(225.201 97.728)"/>
                            <path fill="#FFF" d="M3.648 42.162l4.61 2.646c.285.18.469.484.495.82 0 .3-.221.415-.495.256l-4.61-2.646c-.286-.18-.469-.484-.495-.82 0-.3.22-.414.495-.256z" opacity=".6" transform="translate(-972 -455) translate(972 455) translate(115 11) translate(225.201 97.728)"/>
                            <path fill="#0070FF" d="M19.157 33.88l5.909 3.414c.287.182.471.49.494.83 0 .29-.22.405-.494.246l-5.91-3.413c-.287-.182-.47-.49-.494-.83 0-.29.221-.423.495-.246z" transform="translate(-972 -455) translate(972 455) translate(115 11) translate(225.201 97.728)"/>
                            <path fill="#FFF" d="M19.157 33.88l5.909 3.414c.287.182.471.49.494.83 0 .29-.22.405-.494.246l-5.91-3.413c-.287-.182-.47-.49-.494-.83 0-.29.221-.423.495-.246z" opacity=".6" transform="translate(-972 -455) translate(972 455) translate(115 11) translate(225.201 97.728)"/>
                            <path fill="#FFF" d="M16.72 53.99l13.583 7.822c.29.181.477.49.503.83 0 .3-.23.405-.503.255l-13.584-7.832c-.285-.18-.468-.484-.494-.82 0-.256.22-.405.494-.256zM24.562 62.81l13.61 7.857c.29.181.477.489.504.83 0 .29-.23.405-.504.246L24.597 63.92c-.292-.178-.48-.487-.503-.829-.053-.282.186-.405.468-.282zM32.237 62.941l5.935 3.396c.288.179.475.483.504.82 0 .3-.23.415-.504.256L32.272 64c-.292-.18-.48-.488-.503-.83-.035-.282.221-.36.468-.229z" transform="translate(-972 -455) translate(972 455) translate(115 11) translate(225.201 97.728)"/>
                            <path fill="#E6E6E6" d="M32.237 79.998l5.9 3.414c.29.18.477.488.504.829 0 .29-.23.405-.504.247l-5.9-3.414c-.292-.178-.48-.487-.503-.829 0-.29.256-.405.503-.247z" transform="translate(-972 -455) translate(972 455) translate(115 11) translate(225.201 97.728)"/>
                            <path fill="#0070FF" d="M11.12 33.546l13.583 7.831c.288.178.472.484.495.82 0 .3-.22.415-.495.256L11.12 34.586c-.289-.177-.473-.482-.495-.82 0-.264.22-.38.495-.22z" transform="translate(-972 -455) translate(972 455) translate(115 11) translate(225.201 97.728)"/>
                            <path fill="#FFF" d="M11.12 33.546l13.583 7.831c.288.178.472.484.495.82 0 .3-.22.415-.495.256L11.12 34.586c-.289-.177-.473-.482-.495-.82 0-.264.22-.38.495-.22z" opacity=".6" transform="translate(-972 -455) translate(972 455) translate(115 11) translate(225.201 97.728)"/>
                            <path fill="#0070FF" d="M26.629 42.524l5.909 3.413c.287.182.471.49.494.83 0 .29-.22.405-.494.246l-5.91-3.413c-.287-.182-.47-.49-.494-.829 0-.335.221-.441.495-.247z" transform="translate(-972 -455) translate(972 455) translate(115 11) translate(225.201 97.728)"/>
                            <path fill="#FFF" d="M26.629 42.524l5.909 3.413c.287.182.471.49.494.83 0 .29-.22.405-.494.246l-5.91-3.413c-.287-.182-.47-.49-.494-.829 0-.335.221-.441.495-.247z" opacity=".6" transform="translate(-972 -455) translate(972 455) translate(115 11) translate(225.201 97.728)"/>
                        </g>
                        <g>
                            <path fill="#000" d="M1.93 15.556l8.32 4.798c2.927 1.494 6.432 1.31 9.185-.485l13.734-10.01c2.446-1.765 2.305-4.41-.318-5.972l-4.169-2.416C25.67-.06 22.13-.166 19.03 1.18l-16.95 9.163c-2.71 1.367-2.781 3.696-.15 5.213z" opacity=".15" transform="translate(-972 -455) translate(972 455) translate(115 11) translate(157.331 174.006)"/>
                            <path fill="#37474F" d="M33.39 5.501l-9.486 7.418-7.013 5.477c-.704.317-1.462.5-2.234.538-1.154.089-2.31-.153-3.33-.697l-7.446-4.295h-.044c-1.229-.773-2.086-2.016-2.372-3.438-.285-1.422.026-2.9.862-4.085l.22-.309c1.463-1.959 3.6-3.31 5.998-3.792l3.771-.75C18.428.324 23.436-.275 24.02.12l9.335 5.398.036-.018z" transform="translate(-972 -455) translate(972 455) translate(115 11) translate(157.331 174.006)"/>
                            <path fill="#0070FF" d="M28.081 9.655L28.62 9.232 20.239 4.408 27.569 2.141 26.827 1.709 19.497 3.976 14.498 1.1 13.553 1.277z" transform="translate(-972 -455) translate(972 455) translate(115 11) translate(157.331 174.006)"/>
                            <path fill="#263238" d="M17.721 17.946l6.677-4.816 9-6.49V5.58c.002-.032-.015-.062-.044-.079h-.053c-.671-.229-4.575.944-9.291 2.814l-3.127 1.243c-3.796 1.494-6.285 5.16-6.27 9.235v.158c.771-.038 1.53-.22 2.234-.538l.874-.467z" transform="translate(-972 -455) translate(972 455) translate(115 11) translate(157.331 174.006)"/>
                        </g>
                    </g>
                </g>
                <g>
                    <path fill="#0070FF" d="M15.653 106.906c-9.195-9.46-14.59-47.95-5.625-55.45h45.624c8.965 7.5 3.543 45.981-5.617 55.44l-.257.266c-.097.106-.204.212-.31.309-.266.256-.54.503-.833.742l-.221.177c-.222.176-.443.353-.691.53-.382.276-.778.533-1.187.768-7.566 4.416-19.827 4.416-27.392 0-.399-.23-.798-.495-1.196-.777-.23-.16-.434-.327-.647-.495l-.266-.212c-.28-.225-.55-.464-.806-.715-.124-.115-.248-.239-.363-.362-.075-.07-.146-.143-.213-.221z" transform="translate(-972 -455) translate(972 455) translate(290 229)"/>
                    <g fill="#FFF" opacity=".5">
                        <path d="M10.217 55.45C1.022 45.99-4.373 7.498 4.592 0h45.624c8.965 7.499 3.543 45.981-5.617 55.44l-.257.265c-.097.106-.204.212-.31.31-.266.256-.54.503-.833.741l-.221.177c-.222.177-.443.353-.691.53-.382.277-.778.533-1.187.768-7.566 4.417-19.827 4.417-27.392 0-.399-.23-.798-.494-1.196-.777-.23-.159-.434-.327-.647-.494l-.266-.212c-.28-.225-.55-.464-.806-.716-.124-.115-.248-.238-.363-.362-.075-.07-.146-.143-.213-.22z" transform="translate(-972 -455) translate(972 455) translate(290 229) translate(5.436 51.456)"/>
                    </g>
                    <path fill="#0070FF" d="M51.692 48.436c10.409 6.059 10.409 15.898 0 21.948-10.41 6.05-27.295 6.059-37.704 0-10.41-6.059-10.41-15.898 0-21.948 10.409-6.05 27.294-6.06 37.704 0z" transform="translate(-972 -455) translate(972 455) translate(290 229)"/>
                    <g fill="#FFF" opacity=".7">
                        <path d="M45.51 4.54c10.41 6.06 10.41 15.9 0 21.95-10.409 6.05-27.294 6.058-37.703 0-10.41-6.06-10.41-15.899 0-21.95 10.41-6.05 27.294-6.058 37.704 0z" transform="translate(-972 -455) translate(972 455) translate(290 229) translate(6.18 43.895)"/>
                    </g>
                    <path fill="#0070FF" d="M46.686 51.35c7.646 4.417 7.646 11.668 0 16.12-7.645 4.45-20.048 4.416-27.693 0-7.645-4.417-7.645-11.668 0-16.12 7.645-4.451 20.048-4.451 27.693 0z" transform="translate(-972 -455) translate(972 455) translate(290 229)"/>
                    <g fill="#000" opacity=".3">
                        <path d="M33.427 3.339c7.645 4.416 7.645 11.667 0 16.119-7.645 4.451-20.048 4.416-27.693 0-7.645-4.417-7.645-11.668 0-16.12 7.645-4.45 20.048-4.45 27.693 0z" transform="translate(-972 -455) translate(972 455) translate(290 229) translate(13.26 48.012)"/>
                    </g>
                    <path fill="#F5F5F5" d="M18.993 59c7.645-4.417 20.048-4.417 27.693 0 1.852 1.01 3.423 2.463 4.571 4.23-1.147 1.77-2.718 3.226-4.57 4.24-7.646 4.416-20.049 4.416-27.694 0-1.853-1.016-3.427-2.473-4.58-4.24 1.154-1.765 2.727-3.218 4.58-4.23z" transform="translate(-972 -455) translate(972 455) translate(290 229)"/>
                    <g>
                        <path fill="#0070FF" d="M29.101 39.577c-.539-1.048-.93-2.166-1.16-3.321-.514-2.773.177-5.944 2.427-7.658.886-.67 2.064-1.174 2.445-2.234.155-.6.155-1.229 0-1.828-.416-2.368-1.214-4.805-.558-7.11.736-2.134 2.346-3.855 4.43-4.735 2.057-.856 4.225-1.42 6.44-1.678 1.184-.127 2.338-.456 3.41-.971 1.276-.716 1.675-1.97 2.463-3.074.924-1.218 1.975-2.334 3.136-3.33 2.322-2.066 5.227-3.771 8.443-3.63 6.715.292 6.52 6.05 4.59 10.413-1.932 4.364-2.446 5.786 1.77 10.334 4.218 4.549 4.2 10.157-.805 13.249-5.006 3.091-8.257 3.533-6.272 9.592 1.771 5.396 2.861 9.998-2.135 15.765-3.234 3.728-7.655 6.386-13.183 6.183-2.22-.169-4.404-.669-6.476-1.484-1.523-.75-.496-1.925-1.01-3.427l-3.313-9.645c-.742-2.585-1.629-5.127-2.657-7.613-.612-1.325-1.356-2.535-1.985-3.798z" transform="translate(-972 -455) translate(972 455) translate(290 229)"/>
                        <g fill="#000" opacity=".25">
                            <path d="M1.322 39.577c-.54-1.048-.93-2.166-1.16-3.321-.515-2.773.176-5.944 2.426-7.658.886-.67 2.065-1.174 2.446-2.234.155-.6.155-1.229 0-1.828-.417-2.368-1.214-4.805-.559-7.11.736-2.134 2.347-3.855 4.43-4.735 2.058-.856 4.226-1.42 6.44-1.678 1.185-.127 2.338-.456 3.411-.971 1.276-.716 1.674-1.97 2.463-3.074.923-1.218 1.975-2.334 3.136-3.33 2.321-2.066 5.227-3.771 8.443-3.63 6.715.292 6.52 6.05 4.588 10.413-1.93 4.364-2.445 5.786 1.772 10.334 4.217 4.549 4.2 10.157-.806 13.249-5.005 3.091-8.256 3.533-6.272 9.592 1.772 5.396 2.861 9.998-2.135 15.765-3.234 3.728-7.654 6.386-13.182 6.183-2.221-.169-4.404-.669-6.476-1.484-1.524-.75-.496-1.925-1.01-3.427l-3.313-9.645c-.742-2.585-1.63-5.127-2.658-7.613-.611-1.325-1.355-2.535-1.984-3.798z" transform="translate(-972 -455) translate(972 455) translate(290 229) translate(27.78)"/>
                        </g>
                        <path fill="#FFF" d="M38.226 64.06c.203-.064.338-.256.328-.468-.284-33.05 17.992-52.782 18.178-52.994.19-.198.19-.509 0-.706-.193-.192-.506-.192-.7 0-.186.194-18.727 20.2-18.444 53.665-.002.132.05.259.143.352.093.093.22.145.353.142l.142.01z" transform="translate(-972 -455) translate(972 455) translate(290 229)"/>
                        <path fill="#FFF" d="M43.541 33.297l.107-.044c5.944-3.736 16.548-6.518 16.654-6.545.265-.073.423-.344.355-.61-.031-.127-.113-.236-.226-.303-.114-.066-.25-.084-.377-.05-.443.115-10.86 2.845-16.93 6.66-.112.068-.193.178-.223.306-.03.129-.007.264.064.374.118.198.358.286.576.212zM45.384 28.73c.256-.105.378-.397.275-.653-1.39-3.304-3.235-6.4-5.484-9.194-.084-.102-.207-.165-.339-.175-.132-.01-.262.034-.361.122-.203.18-.227.489-.053.698 2.174 2.719 3.963 5.723 5.315 8.93.047.123.143.222.265.273.122.052.26.052.382 0z" transform="translate(-972 -455) translate(972 455) translate(290 229)"/>
                        <path fill="#0070FF" d="M33.566 67.593c-4.719 1.46-9.742 1.643-14.555.53-8.345-1.766-13.457-9.574-13.457-9.574s9.036-3.604 14.298-3.957c-5.251-.787-10.6-.674-15.813.336 0 0-4.837-1.767-3.924-9.928 0 0 4.553-3.347 15.06-2.031 0 0-5.245-3.736-14.45-4.84-.726 0 .258-10.6 1.135-15.325s2.657-3.992 6.378-3.586c3.721.407 14.892 2.933 16.3 5.653 1.41 2.72.045 9.663.045 9.663 1.934-2.64 3.004-5.811 3.065-9.08 0 0 4.19 1.528 6.432 3.533 1.683 1.357 3.05 3.063 4.004 5-.523 3.718-2.277 9.397-4.74 12.567 0 0 5.546-3.577 6.813-10.148 2.76 3.765 4.305 8.278 4.43 12.94-.124 8.31-3.863 14.485-11.02 18.247z" transform="translate(-972 -455) translate(972 455) translate(290 229)"/>
                        <path fill="#000" d="M33.566 67.593c-4.719 1.46-9.742 1.643-14.555.53-8.345-1.766-13.457-9.574-13.457-9.574s9.036-3.604 14.298-3.957c-5.251-.787-10.6-.674-15.813.336 0 0-4.837-1.767-3.924-9.928 0 0 4.553-3.347 15.06-2.031 0 0-5.245-3.736-14.45-4.84-.726 0 .258-10.6 1.135-15.325s2.657-3.992 6.378-3.586c3.721.407 14.892 2.933 16.3 5.653 1.41 2.72.045 9.663.045 9.663 1.934-2.64 3.004-5.811 3.065-9.08 0 0 4.19 1.528 6.432 3.533 1.683 1.357 3.05 3.063 4.004 5-.523 3.718-2.277 9.397-4.74 12.567 0 0 5.546-3.577 6.813-10.148 2.76 3.765 4.305 8.278 4.43 12.94-.124 8.31-3.863 14.485-11.02 18.247z" opacity=".1" transform="translate(-972 -455) translate(972 455) translate(290 229)"/>
                        <path fill="#FFF" d="M34.673 66.878c-.172-.064-.29-.223-.3-.407-1.268-15.774-18.968-40.407-26.79-45.354-.219-.146-.285-.436-.15-.662.142-.217.431-.283.655-.15 7.973 5.025 25.948 30.03 27.223 46.087.013.126-.027.25-.108.347-.082.097-.2.156-.326.165-.069.01-.14 0-.204-.026z" transform="translate(-972 -455) translate(972 455) translate(290 229)"/>
                    </g>
                </g>
                <g>
                    <path fill="#FFA8A7" d="M115.287 204.488c0-.176-2.832-10.391-2.832-10.391s.926.942 6.838-.617c2.233-.672 4.388-1.575 6.433-2.694l1.685 7.468c1.58 2.87 6.804 1.55 12.522.88.961-.114 1.95-.273 2.938-.44h.062c3.088-.167 6.177 1.682 2.982 4.315-3.194 2.633-8.515 3.62-13.395 4.5-5.876 1.1-16.183 2.818-17.233-3.02z" transform="translate(-972 -455) translate(972 455) translate(50 81)"/>
                    <path fill="#263238" d="M156.328 203.608c.42.988.567 2.07.423 3.135-.106 1.136-2.93 4.993-7.941 7.362-5.012 2.37-11.136 2.519-14.013 3.347-2.877.827-5.524 2.474-8.921 3.302-3.397.828-6.76 1.268-10.165-.977-.627-.96-1.315-3.188-1.121-3.409.618-.58 41.738-12.76 41.738-12.76z" transform="translate(-972 -455) translate(972 455) translate(50 81)"/>
                    <path fill="#0070FF" d="M128.311 199.275c2.189 1.506 6.724.458 11.622-.097 4.623-.528 9.82-2.149 12.962-1.057 3.141 1.092 5.762 4.774 1.518 9.503-1.227 1.365-3.821 3.769-5.903 4.517-5.295 1.885-10.007 2.035-13.395 2.871-4.412 1.083-6.83 3.038-10.907 3.523-5.294.616-8.63-.74-9.547-2.149-.918-1.409-1.765-12.76.503-12.523 0 0 .953 3.673 9.591.106 3.768-1.576 3.706-3.884 3.556-4.694z" transform="translate(-972 -455) translate(972 455) translate(50 81)"/>
                    <path fill="#000" d="M128.311 199.275c2.189 1.506 6.724.458 11.622-.097 4.623-.528 9.82-2.149 12.962-1.057 3.141 1.092 5.762 4.774 1.518 9.503-1.227 1.365-3.821 3.769-5.903 4.517-5.295 1.885-10.007 2.035-13.395 2.871-4.412 1.083-6.83 3.038-10.907 3.523-5.294.616-8.63-.74-9.547-2.149-.918-1.409-1.765-12.76.503-12.523 0 0 .953 3.673 9.591.106 3.768-1.576 3.706-3.884 3.556-4.694z" opacity=".4" transform="translate(-972 -455) translate(972 455) translate(50 81)"/>
                    <path fill="#FAFAFA" d="M142.96 205.37s-.495-4.792-4.042-6.06c-.648-.296-1.409-.197-1.96.256 0 0 3.292.475 4.413 6.103 0 0 .168.37.882.237.212-.053.742-.15.706-.537zM133.932 199.927s0-.159.83-.308c.329-.078.674-.04.98.105 0 0 2.646 1.145 3.14 6.165 0 0 0 .599-.82.766-.19.068-.401.054-.58-.04-.18-.093-.312-.258-.364-.453 0 0-.547-5.275-3.186-6.235zM131.091 200.032s.15-.299.768-.299c.785 0 .97.308.97.308s1.889 1.929 1.906 6.12c0 0 .08.705-.882.776-.962.07-.883-.722-.883-.722s-.335-5.337-1.879-6.183z" transform="translate(-972 -455) translate(972 455) translate(50 81)"/>
                    <path fill="#37474F" d="M111.634 135.094c4.324 12.971 15.795 57.638 15.795 57.638s-7.465 6.693-15.566 3.646l-19.298-55.622 19.069-5.662z" transform="translate(-972 -455) translate(972 455) translate(50 81)"/>
                    <path fill="#FFA8A7" d="M144.98 218.931c-.882-1.312-4.2-10.392-4.2-10.392s3.459 1.973 9.415.564c3.027-.722 5.86-3.998 5.86-3.998l2.54 8.727c1.5 2.915 6.363 1.955 12.098 1.444.962-.088 1.95-.229 2.947-.37h.062c3.089-.088 6.177 1.832 2.868 4.404-3.309 2.571-8.595 3.417-13.5 4.174-5.86.89-14.781.379-18.09-4.553z" transform="translate(-972 -455) translate(972 455) translate(50 81)"/>
                    <path fill="#263238" d="M189.47 218.658c.429 1.073.56 2.241.38 3.382-.15 1.215-3.282 5.284-8.683 7.688-5.4 2.404-12.027 2.413-15.142 3.223s-5.991 2.519-9.662 3.32c-3.67.801-7.289 1.171-10.88-1.312-.653-1.057-1.341-3.47-1.112-3.699.591-.608 45.1-12.602 45.1-12.602z" transform="translate(-972 -455) translate(972 455) translate(50 81)"/>
                    <path fill="#0070FF" d="M159.53 213.18c.347.248.71.472 1.086.67.38.157.788.241 1.2.246.961.108 1.93.131 2.894.07 2.418-.114 4.827-.484 7.245-.695 4.968-.44 10.589-2.043 13.933-.792 3.344 1.25 6.398 5.283 1.712 10.224-1.799 1.93-3.918 3.536-6.265 4.746-5.55 2.317-11.312 1.885-15 2.695-4.766 1.048-7.413 3.083-11.807 3.479-5.692.52-9.24-1.022-10.183-2.563-.53-.88.053-5.284-.653-8.762-.618-2.977-.46-5.002.617-4.87.23.386.51.74.83 1.057.348.413.778.752 1.262.995.682.317 1.399.556 2.135.713 1.283.391 2.62.575 3.962.546.385-.004.76-.124 1.077-.343.353-.364.573-.835.626-1.34.088-.44.185-.88.274-1.32.037-.24.12-.47.247-.678.175-.232.406-.416.67-.537.845-.369 1.59-.934 2.171-1.647.354-.629.571-1.325.635-2.043.004-.125.054-.245.142-.335.158-.123.397 0 .573.097l.618.387z" transform="translate(-972 -455) translate(972 455) translate(50 81)"/>
                    <path fill="#000" d="M159.53 213.18c.347.248.71.472 1.086.67.38.157.788.241 1.2.246.961.108 1.93.131 2.894.07 2.418-.114 4.827-.484 7.245-.695 4.968-.44 10.589-2.043 13.933-.792 3.344 1.25 6.398 5.283 1.712 10.224-1.799 1.93-3.918 3.536-6.265 4.746-5.55 2.317-11.312 1.885-15 2.695-4.766 1.048-7.413 3.083-11.807 3.479-5.692.52-9.24-1.022-10.183-2.563-.53-.88.053-5.284-.653-8.762-.618-2.977-.46-5.002.617-4.87.23.386.51.74.83 1.057.348.413.778.752 1.262.995.682.317 1.399.556 2.135.713 1.283.391 2.62.575 3.962.546.385-.004.76-.124 1.077-.343.353-.364.573-.835.626-1.34.088-.44.185-.88.274-1.32.037-.24.12-.47.247-.678.175-.232.406-.416.67-.537.845-.369 1.59-.934 2.171-1.647.354-.629.571-1.325.635-2.043.004-.125.054-.245.142-.335.158-.123.397 0 .573.097l.618.387z" opacity=".4" transform="translate(-972 -455) translate(972 455) translate(50 81)"/>
                    <path fill="#FAFAFA" d="M175.035 220.19s-.406-5.16-4.183-6.613c-.688-.333-1.505-.247-2.109.22 0 0 3.53.599 4.536 6.666 0 0 .176.406.953.282.256-.035.83-.123.803-.555zM165.487 214.123s0-.176.882-.317c.353-.074.721-.024 1.042.14 0 0 2.814 1.295 3.212 6.694 0 0 0 .642-.883.8-.207.069-.433.047-.624-.058-.19-.105-.329-.285-.382-.496 0 0-.432-5.671-3.247-6.763zM162.434 214.176s.168-.317.838-.3c.838 0 1.024.352 1.024.352s1.976 2.123 1.888 6.614c0 0 .07.766-.997.82-1.068.052-.882-.802-.882-.802s-.23-5.76-1.871-6.684z" transform="translate(-972 -455) translate(972 455) translate(50 81)"/>
                    <path fill="#455A64" d="M142.068 150.408c3.406 10.453 12.107 40.21 16.077 55.48 0 0-7.138 6.412-16.324 5.848l-22.14-57.295 8.825-5.442 13.562 1.409zM69.173 293.434c.794 0 1.438-.643 1.438-1.436v-92.08c0-.793-.644-1.436-1.438-1.436-.795 0-1.439.643-1.439 1.436v92.107c.015.782.655 1.409 1.439 1.409zM12.073 259.97c.582.004 1.11-.344 1.332-.881l28.299-71.491c.243-.483.192-1.06-.131-1.493-.323-.433-.863-.647-1.396-.553-.533.094-.966.48-1.12.998L10.73 257.97c-.29.735.07 1.565.803 1.858.169.082.352.13.539.141z" transform="translate(-972 -455) translate(972 455) translate(50 81)"/>
                    <path fill="#455A64" d="M15.47 251.348c.394 0 .771-.162 1.041-.45l52.662-55.612 52.564 55.375c.557.517 1.42.513 1.97-.01.552-.522.601-1.382.113-1.963l-53.606-56.476c-.271-.285-.647-.447-1.041-.449-.394.001-.77.164-1.041.45l-53.703 56.713c-.394.416-.503 1.026-.277 1.552.226.526.744.868 1.318.87z" transform="translate(-972 -455) translate(972 455) translate(50 81)"/>
                    <path fill="#455A64" d="M126.273 259.97c.182-.002.361-.038.53-.106.733-.294 1.092-1.124.802-1.859l-28.298-71.482c-.132-.546-.57-.965-1.123-1.073-.552-.107-1.116.116-1.444.572-.328.456-.36 1.062-.08 1.55l28.307 71.49c.211.539.727.897 1.306.907z" transform="translate(-972 -455) translate(972 455) translate(50 81)"/>
                    <path fill="#0070FF" d="M126.961 168.33c1.033-5.778-3.68-10.287-12.556-16.266-8.22-5.4-16.81-10.217-25.705-14.417-7.43-3.399-15-3.082-24.522 1.762-13.236 6.772-52.944 30.822-52.944 30.822s59.404 33.465 70.83 31.968c11.428-1.497 39.991-20.044 42.259-26.57 2.268-6.525 2.638-7.3 2.638-7.3z" transform="translate(-972 -455) translate(972 455) translate(50 81)"/>
                    <g fill="#000" opacity=".4">
                        <path d="M115.727 32.941c1.032-5.777-3.68-10.285-12.557-16.265-8.22-5.4-16.809-10.217-25.704-14.416-7.43-3.4-15-3.083-24.522 1.761C39.708 10.793 0 34.844 0 34.844S59.403 68.308 70.83 66.81c11.428-1.497 39.99-20.043 42.259-26.569 2.267-6.526 2.638-7.3 2.638-7.3z" transform="translate(-972 -455) translate(972 455) translate(50 81) translate(11.234 135.388)"/>
                    </g>
                    <path fill="#0070FF" d="M76.338 195.18c8.524 7.706 17.436 1.074 31.537-8.058 15.963-10.33 19.086-18.793 19.086-18.793s0 6.34-1.19 9.309c-1.192 2.967-3.769 6.34-15.275 14.257-11.507 7.917-19.846 11.88-27.584 13.35l-6.106-.836" transform="translate(-972 -455) translate(972 455) translate(50 81)"/>
                    <path fill="#000" d="M107.875 187.122c15.963-10.33 19.086-18.793 19.086-18.793s0 6.34-1.19 9.309c-1.192 2.967-3.769 6.34-15.275 14.257-11.507 7.917-19.846 11.88-27.584 13.35l-6.106-.836-.468-9.229c8.515 7.706 17.436 1.074 31.537-8.058z" opacity=".5" transform="translate(-972 -455) translate(972 455) translate(50 81)"/>
                    <path fill="#0070FF" d="M14.26 248.715L9.85 258.772c-.026.086-.044.174-.053.264-.005.061-.005.123 0 .185.098.282.296.52.556.669.726.407 1.602.45 2.365.114.209-.097.38-.261.485-.466v-.132l4.06-9.432-3.001-1.26zM124.323 249.137l3.768 9.855c.009.085.009.17 0 .255v.176c-.105.269-.306.489-.565.617-.714.37-1.563.37-2.277 0-.195-.1-.353-.261-.45-.458v-.141l-3.467-9.238 2.99-1.066zM67.514 284.892v8.154c.04.29.222.54.485.67.736.379 1.611.379 2.347 0 .268-.122.45-.378.477-.67v-8.154c-1.035-.548-2.274-.548-3.31 0z" transform="translate(-972 -455) translate(972 455) translate(50 81)"/>
                    <path fill="#37474F" d="M35.033 133.79c3.38 3.937 34.166-4.905 42.355-6.015 13.148-1.76 23.825-3.09 28.325-1.69s6.362 3.672 7.73 9.009c1.615 6.287 2.444 9.502 2.444 9.502s-21.848 8.366-39.09 10.383c-17.242 2.016-41.764-21.189-41.764-21.189z" transform="translate(-972 -455) translate(972 455) translate(50 81)"/>
                    <path fill="#455A64" d="M29.262 139.558c-3.415 12.981-6.477 28.075 1.42 36.336 5.295 5.566 32.04 20.026 49.283 14.328 16.977-5.61 52.15-31.703 55.68-34.284 3.529-2.58 6.732-4.403 6.397-5.53-4.739-15.71-11.675-16.944-24.522-14.09-15.725 3.452-50.227 17.498-50.227 17.498l-38.031-14.258z" transform="translate(-972 -455) translate(972 455) translate(50 81)"/>
                    <path fill="#FFA8A7" d="M107.372 56.117L95.513 69.494 76.364 60.424 89.75 41.939z" transform="translate(-972 -455) translate(972 455) translate(50 81)"/>
                    <path fill="#F28F8F" d="M122.082 30.702s4.853 6.992 4.332 7.705c-.52.714-3.953 1.418-3.953 1.418l-.38-9.123z" transform="translate(-972 -455) translate(972 455) translate(50 81)"/>
                    <path fill="#263238" d="M122.046 35.325c-3.206 0-5.806-2.594-5.806-5.795 0-3.2 2.6-5.794 5.806-5.794 3.207 0 5.807 2.594 5.807 5.794-.005 3.199-2.602 5.79-5.807 5.795zm0-10.524c-2.617 0-4.738 2.118-4.738 4.73 0 2.611 2.121 4.729 4.738 4.729 2.617 0 4.739-2.118 4.739-4.73-.024-2.596-2.137-4.689-4.739-4.693V24.8z" transform="translate(-972 -455) translate(972 455) translate(50 81)"/>
                    <path fill="#FFA8A7" d="M108.607 11.345c9.54 1.761 12.354 5.883 13.616 20.915 1.288 15.702-.203 20.687-2.224 22.844-1.368 1.462-9.124 1.903-13.068.881-4.933-1.242-16.104-4.905-21.47-12.699-6.317-9.167-8.214-21.743-1.764-27.062 9-7.46 21.028-5.601 24.91-4.879z" transform="translate(-972 -455) translate(972 455) translate(50 81)"/>
                    <path fill="#F28F8F" d="M107.372 56.117c4.103.88 10.35.361 12.204-.696-2.29.488-4.663.4-6.91-.255-2.24-.598-4.373-1.537-6.326-2.783l1.032 3.734z" transform="translate(-972 -455) translate(972 455) translate(50 81)"/>
                    <path fill="#263238" d="M123.988 17.5c-2.648 1.833-5.912 2.59-9.107 3.092.247 2.545-.556 5.064-1.35 7.503-.547 1.682-2.532 6.975-4.694 4.069-1.562-2.096-2.974-4.007-5.965-3.523-4.924.88-5.445 7.142-2.242 10.894 3.204 3.751 6.071 2.219 6.071 2.219s.45 6.772-3.132 11.563c0 0-5.339 3.276-12.84.81C86 52.568 79.17 46.615 76.657 41.965c-6.927-12.787-6.963-25.045 1.438-28.815.776-6.164 5.533-8.982 10.995-10.365 7.58-1.92 15.45 2.827 22.774-.308 1.545-.66 2.965-1.594 4.545-2.166.861-.415 1.865-.415 2.726 0 .633.524 1.049 1.265 1.165 2.078.485 1.45.38 3.03-.291 4.403 1.085-.58 2.247-1.007 3.45-1.268 1.218-.25 2.485.036 3.477.784.84.792 1.339 1.878 1.394 3.03.274 3.231-1.694 6.322-4.341 8.163z" transform="translate(-972 -455) translate(972 455) translate(50 81)"/>
                    <path fill="#263238" d="M77.962 15.255l-5.754-3.214c.545-1.084 1.642-1.782 2.857-1.817 1.214-.035 2.35.6 2.955 1.651.606 1.052.583 2.35-.058 3.38z" transform="translate(-972 -455) translate(972 455) translate(50 81)"/>
                    <path fill="#263238" d="M108.648 30.019L127.407 30.026 127.407 30.933 108.649 30.926z" transform="translate(-972 -455) translate(972 455) translate(50 81) rotate(-10.57 118.028 30.476)"/>
                    <path fill="#FFA8A7" d="M147.38 63.937c-.494-.827-1.597-.995-2.515-1.312-1.694-.59-3.018-1.937-4.65-2.642-1.862-.773-3.927-.912-5.877-.396-.666.163-1.321.372-1.959.625-1.222.492-2.402 1.081-3.53 1.761-4.676 2.757-8.188 9-12.785 11.863-1.712 1.065-3.31 2.034-4.889 3.003l11.004 9.73c1.733-1.462 3.542-2.835 5.418-4.112 2.7-1.602 5.426-1.638 8.462-2.078 2.095-.357 4.16-.872 6.177-1.541.748-.126 1.41-.556 1.826-1.189.279-.947-.244-1.943-1.182-2.254-1.05-.256-2.123-.403-3.203-.44-.794-.124-2.912.343-3.38-.45-.247-.423.062-.933.362-1.312 1.906-2.369 4.315-4.905 7.36-5.619.95-.151 1.856-.515 2.646-1.065.822-.578 1.121-1.654.715-2.572z" transform="translate(-972 -455) translate(972 455) translate(50 81)"/>
                    <path fill="#0070FF" d="M81.738 53.017c-11.656-6.35-22.272-2.272-26.092 5.892-3.468 7.388-10.74 35.974-10.74 35.974 3.495 6.57 36.832-41.866 36.832-41.866z" transform="translate(-972 -455) translate(972 455) translate(50 81)"/>
                    <path fill="#0070FF" d="M79.991 55.307l1.765-2.298C68.59 46.774 56.81 54.964 46.46 71.079c-11.19 17.367-17.057 42.271-17.11 68.612 0 0 2.232 11.827 17.198 17.736 15.883 6.279 38.04 3.62 44.95-12.814 0 0 .14-16.406 5.135-24.49 3.239-5.231 10.783-16.847 16.395-25.187 4.889-7.256 8.692-23.777-1.518-29.81-2.69-1.556-5.461-2.967-8.303-4.227-9.336 3.065-24.416-1.91-23.216-5.592z" transform="translate(-972 -455) translate(972 455) translate(50 81)"/>
                    <path fill="#FFF" d="M80.026 55.369l1.712-2.36c-13.165-6.235-24.945 1.955-35.296 18.07-11.189 17.367-17.057 42.271-17.11 68.612 0 0 2.233 11.827 17.198 17.736 15.884 6.279 38.04 3.62 44.95-12.814 0 0 .141-16.406 5.136-24.49 3.238-5.231 10.782-16.847 16.395-25.187 4.888-7.256 8.691-23.777-1.518-29.81-2.69-1.556-5.462-2.967-8.304-4.227-9.318 3.065-24.363-1.85-23.163-5.53z" opacity=".75" transform="translate(-972 -455) translate(972 455) translate(50 81)"/>
                    <path fill="#0070FF" d="M117.237 84.412c.714-3.137.852-6.377.406-9.563-2.38 5.602-5.746 10.735-9.936 15.155-5.356 5.628-11.965 10.013-16.933 15.984-5.294 6.323-9.045 13.976-13.457 20.88-1.764 2.774-4.182 8.12-7.465 8.34-4.006.255-7.835-4.615-10.015-7.979-3.53-5.354-6.477-12.056-10.81-16.732-3.785-4.113-9.644-9.379-14.797-6.992-.389 1.365-.75 2.747-1.095 4.139-.344 1.391-.661 2.835-.961 4.253v.168c-.292 1.426-.565 2.862-.821 4.297.005.076.005.153 0 .23-.247 1.426-.468 2.852-.662 4.28-.867 6.247-1.306 12.546-1.315 18.854 0 0 2.233 11.827 17.198 17.736 15.884 6.279 38.04 3.62 44.95-12.813 0 0 .141-16.407 5.136-24.491.503-.81 1.12-1.761 1.764-2.88l.115-.185c.574-.88 1.191-1.876 1.862-2.915 0-.061.08-.123.124-.185-.003-.026-.003-.053 0-.079 1.429-2.228 3.035-4.694 4.694-7.239l.75-1.154c1.606-2.448 3.238-4.922 4.791-7.256.521-.784 1.033-1.55 1.545-2.299.211-.325.432-.642.635-.96.176-.255.353-.537.52-.818l.16-.265.37-.651.159-.3.397-.775c.029-.069.061-.137.097-.202.168-.344.326-.696.485-1.057v-.106c.141-.334.283-.669.415-1.004 0-.088.062-.167.088-.246.124-.326.247-.652.362-.978v-.194c.212-.607.406-1.241.582-1.875.177-.643.336-1.295.477-1.947v-.079l.185-.097z" opacity=".1" transform="translate(-972 -455) translate(972 455) translate(50 81)"/>
                    <path fill="#FFA8A7" d="M178.29 100.396c-.833 1.012-1.748 1.954-2.735 2.818-4.024 3.637-8.727 5.39-14.198 8.93-4.412 2.862-11.233 7.045-16.977 10.612-5.815 3.566-12.036 6.428-18.53 8.524-5.295 1.568-8.322 1.63-11.472-6.895-1.544-4.183-2.77-8.48-4.112-12.734-1.982-6.335-3.935-12.679-5.859-19.031 0 0-7.06-17.463 8.824-26.234 6.91 3.945 9.539 5.539 11.71 13.8 2.594 9.889 6.794 29.404 6.794 29.404 5.613-1.97 11.092-4.3 16.404-6.975 2.012-.995 4.491-1.69 5.93-3.478.955-1.233 1.8-2.547 2.523-3.928.68-1.215 1.165-2.536 1.915-3.699 1.505-2.11 3.256-4.034 5.215-5.733.32-.39.766-.655 1.262-.748.537.005 1.027.302 1.28.775.582 1.021.044 2.016-.256 3.056-.345 1.188-.689 2.377-1.024 3.522 4.04-2.342 7.5-5.563 10.121-9.423.222-.366.489-.703.794-1.004.315-.306.745-.463 1.183-.431 1.059.132 2.109 1.84 2.162 2.818-.067.995-.04 1.995.08 2.985.237.88.881 1.674 1.155 2.572.293.93.494 1.885.6 2.853.128 2.114-.436 4.213-1.606 5.98-.353.582-.748 1.139-1.182 1.664z" transform="translate(-972 -455) translate(972 455) translate(50 81)"/>
                    <path fill="#0070FF" d="M112.278 65.655c6.045 2.439 10.404 5.195 13.157 14.407s5.753 24.033 5.753 24.033.053 3.09-7.289 7.415c-4.271 2.567-9.415 3.258-14.215 1.91l-5.542-17.788s-9.83-23.83 8.136-29.977zM76.806 204.41c-4.854-.247-8.657-3.805-20.199-8.605C35.29 186.937 19.3 179.83 13.202 168.7c-6.097-11.131-10.404-43.31-8.877-57.242.141-1.577.491-3.13 1.041-4.615l-1.5-.22 3.883-3.302c3.988-3.24 10.465-.352 15.354 2.307 13.96 7.574 24.874 14.971 33.53 41.54 6.487 20 10.766 38.247 19.731 48.004" transform="translate(-972 -455) translate(972 455) translate(50 81)"/>
                    <path fill="#000" d="M5.366 106.842l-1.5-.22 3.883-3.302c3.988-3.24 10.465-.352 15.354 2.307 13.96 7.574 24.874 14.971 33.53 41.54 6.487 20 10.766 38.247 19.731 48.004l.468 9.23c-4.853-.247-8.656-3.805-20.198-8.604-21.345-8.86-37.335-15.967-43.432-27.098-6.097-11.131-10.404-43.31-8.877-57.242.146-1.577.496-3.128 1.041-4.615z" opacity=".3" transform="translate(-972 -455) translate(972 455) translate(50 81)"/>
                    <path fill="#0070FF" d="M19.061 109.062c13.951 7.573 24.866 14.97 33.531 41.54 8.666 26.569 13.351 50.09 30.355 54.644 0 0-7.686 3.056-31.246-6.896-7.5-3.161-16.598-8.93-22.572-12.276-11.71-6.56-18.812-11.933-19.933-13.95-6.177-11.087-10.404-43.31-8.886-57.241 1.518-13.932 11.754-9.626 18.751-5.821z" transform="translate(-972 -455) translate(972 455) translate(50 81)"/>
                </g>
                <g>
                    <path fill="#0070FF" d="M26.455 71.896l-3.813-7.215 3.084-8.92v-5.457l-9.445 5.457v5.458l4.059 7.03c.062.112.161.2.28.246l5.835 3.4z" transform="translate(-972 -455) translate(972 455) translate(121)"/>
                    <path fill="#000" d="M26.455 71.896l-3.813-7.215 3.084-8.92v-5.457l-9.445 5.457v5.458l4.059 7.03c.062.112.161.2.28.246l5.835 3.4z" opacity=".2" transform="translate(-972 -455) translate(972 455) translate(121)"/>
                    <path fill="#0070FF" d="M49 6.918c-.11-1.996-1.164-3.82-2.838-4.912L43.86.679c-1.78-.905-3.886-.905-5.667 0L2.83 21.146C1.157 22.238.106 24.063 0 26.058v38.94c.109 1.991 1.16 3.812 2.83 4.903l2.31 1.336c1.78.905 3.886.905 5.667 0l11.378-6.574 4.059 7.03c.116.208.343.327.58.304.235-.023.436-.183.51-.409l4.287-12.373 14.567-8.436c1.667-1.1 2.711-2.927 2.812-4.922V6.918z" transform="translate(-972 -455) translate(972 455) translate(121)"/>
                    <path fill="#000" d="M0 64.997c.109 1.992 1.16 3.813 2.83 4.904l2.31 1.336c1.616.813 3.502.896 5.184.228-1.336.501-2.355-.246-2.355-1.863V30.663c.037-.987.324-1.949.835-2.795L.826 23.264C.318 24.11.034 25.072 0 26.058v38.94z" opacity=".2" transform="translate(-972 -455) translate(972 455) translate(121)"/>
                    <path fill="#FFF" d="M48.93 6.11c-.325-1.204-1.424-1.582-2.733-.835L10.807 25.75c-.84.517-1.528 1.248-1.995 2.117L.835 23.264c.474-.862 1.16-1.588 1.994-2.11L38.211.68c1.78-.905 3.886-.905 5.667 0l2.32 1.335c1.434.932 2.423 2.413 2.732 4.096z" opacity=".5" transform="translate(-972 -455) translate(972 455) translate(121)"/>
                    <g fill="#FFF">
                        <path d="M.006 22.166c-.007-.276.04-.551.14-.809.12-.26.259-.513.414-.755L8.256 8.167c.033-.056.074-.107.123-.15l.088-.061c.08-.072.201-.072.281 0 .09.104.135.24.123.378v4.798c.01.348-.068.693-.228 1.002-.116.227-.245.447-.387.659l-3.971 6.046 3.971 1.828c.136.045.266.107.387.184.15.097.228.343.228.73v3.41c0 .177-.043.351-.123.51-.054.143-.152.266-.28.35h-.089c-.04.014-.083.014-.123 0L.56 24.338c-.159-.06-.3-.156-.413-.282-.116-.192-.165-.418-.14-.641v-1.248zM16.77 2.956c.075-.266.172-.525.29-.774.122-.254.318-.465.562-.606l2.575-1.52c.085-.075.213-.075.298 0 .09.107.135.246.123.386.011.097.011.194 0 .29L14.117 28.45c-.064.258-.156.509-.273.747-.121.262-.32.48-.57.624l-2.522 1.459c-.086.074-.213.074-.3 0-.094-.105-.139-.246-.122-.387-.012-.093-.012-.187 0-.28l6.44-27.656zM30.907 7.437c.009.277-.04.552-.14.809-.12.261-.259.514-.414.756l-7.705 12.443c-.037.05-.078.098-.123.141l-.088.07c-.083.073-.207.073-.29 0-.09-.104-.132-.241-.114-.378v-4.815c-.014-.342.062-.681.22-.985.149-.263.28-.474.395-.641l3.365-5.203-3.365-1.283c-.142-.046-.275-.114-.395-.202-.15-.105-.22-.351-.22-.747V2.604c-.001-.176.038-.35.114-.51.063-.139.163-.257.29-.342h.211l7.696 3.515c.386.103.627.486.554.879l.009 1.291z" transform="translate(-972 -455) translate(972 455) translate(121) translate(13.173 23.78)"/>
                    </g>
                </g>
            </g>
        </g>
    </g>
</svg>
