<svg xmlns="http://www.w3.org/2000/svg" width="20" height="25" viewBox="0 0 20 25">
    <defs>
        <filter id="bjzfovfhva">
            <feColorMatrix in="SourceGraphic" values="0 0 0 0 0.000000 0 0 0 0 0.439216 0 0 0 0 1.000000 0 0 0 1.000000 0"/>
        </filter>
    </defs>
    <g fill="none" fill-rule="evenodd">
        <g filter="url(#bjzfovfhva)" transform="translate(-790 -737)">
            <g>
                <path fill="#000" fill-rule="nonzero" d="M8.938 12.468L.44 3.971c-.587-.588-.587-1.537 0-2.118L1.853.44C2.44-.147 3.39-.147 3.97.44l6.023 6.024L16.017.44c.587-.587 1.537-.587 2.118 0l1.425 1.406c.587.588.587 1.537 0 2.118l-8.498 8.498c-.587.593-1.537.593-2.124.006zm2.124 11.996l8.498-8.497c.587-.587.587-1.537 0-2.118l-1.413-1.412c-.587-.588-1.537-.588-2.118 0L10 18.454 3.977 12.43c-.587-.587-1.537-.587-2.118 0L.44 13.843c-.587.587-.587 1.537 0 2.118l8.498 8.497c.587.594 1.537.594 2.124.006z" transform="translate(790 737)"/>
            </g>
        </g>
    </g>
</svg>
