<svg xmlns="http://www.w3.org/2000/svg" width="45" height="44" viewBox="0 0 44 45">
    <g fill="none" fill-rule="evenodd">
        <g>
            <g>
                <path fill="#131313" fill-rule="nonzero" d="M4.632 24.99v-8.96h5.46c1.494 0 2.83-.31 4.008-.928 1.178-.618 2.112-1.493 2.8-2.625.688-1.131 1.032-2.455 1.032-3.972v-.49c0-1.54-.332-2.87-.997-3.99s-1.587-1.99-2.765-2.608C12.992.8 11.632.49 10.092.49H.012v24.5h4.62zm5.005-13.16H4.632V4.69h5.005c1.097 0 1.984.303 2.66.91.677.607 1.015 1.435 1.015 2.485v.35c0 1.05-.338 1.878-1.015 2.485-.676.607-1.563.91-2.66.91zM35.704 31.29v-3.57h-2.065c-.653 0-.98-.35-.98-1.05v-1.356l.042-.007c1.914-.307 3.523-1.023 4.827-2.149l.24-.216c1.82-1.691 2.73-4.112 2.73-7.262V9.8c0-3.15-.91-5.57-2.73-7.263C35.949.846 33.499 0 30.419 0s-5.53.846-7.35 2.538c-1.82 1.691-2.73 4.112-2.73 7.262v5.88c0 3.15.91 5.57 2.73 7.262 1.346 1.25 3.035 2.04 5.069 2.365l.042.007v2.056c0 1.105.307 2.004.92 2.696l.147.157c.712.711 1.64 1.067 2.783 1.067h3.675zm-5.285-9.94c-1.703 0-3.04-.502-4.008-1.505S24.96 17.5 24.96 15.82V9.66c0-1.68.484-3.022 1.452-4.025.969-1.003 2.305-1.505 4.008-1.505 1.727 0 3.068.502 4.025 1.505.957 1.003 1.435 2.345 1.435 4.025v6.16c0 1.68-.478 3.022-1.435 4.025-.957 1.003-2.298 1.505-4.025 1.505z" transform="translate(-223.000000, -57.000000) translate(223.297648, 57.010000)"/>
                <path fill="#0070FF" d="M19.892 31.301L0 31.301 0 28.023 19.892 27.725z" transform="translate(-223.000000, -57.000000) translate(223.297648, 57.010000)"/>
            </g>
        </g>
    </g>
</svg>
